<?xml version="1.0" encoding="UTF-8"?>
<svg version="1.1" xmlns="http://www.w3.org/2000/svg" width="400" height="400">
<path d="M0 0 C132 0 264 0 400 0 C400 132 400 264 400 400 C268 400 136 400 0 400 C0 268 0 136 0 0 Z " fill="#333332" transform="translate(0,0)"/>
<path d="M0 0 C132 0 264 0 400 0 C400 132 400 264 400 400 C391.42 400 382.84 400 374 400 C373.814375 398.06125 373.62875 396.1225 373.4375 394.125 C372.45644672 386.98874578 370.24131352 380.81455108 367.38842773 374.21923828 C365.1726419 368.99210677 364.06261621 365.0260205 365.8046875 359.40234375 C366.33449219 358.18224609 366.33449219 358.18224609 366.875 356.9375 C367.22304688 356.12152344 367.57109375 355.30554688 367.9296875 354.46484375 C368.62208833 352.87030024 369.32457337 351.28008163 370.0390625 349.6953125 C371.2933719 346.1771276 371.89717915 342.60974857 372.5 338.9375 C372.69227173 337.8091272 372.69227173 337.8091272 372.88842773 336.65795898 C373.26504883 334.43960638 373.63408222 332.22014067 374 330 C374.18691406 328.86820312 374.37382812 327.73640625 374.56640625 326.5703125 C374.8723342 324.71547377 375.17509752 322.86010598 375.47265625 321.00390625 C375.77374676 319.28880549 376.09297462 317.5761351 376.46606445 315.87524414 C377.94580022 309.04099352 378.58773032 302.28244665 379.0625 295.3125 C379.14556396 294.17288818 379.22862793 293.03327637 379.31420898 291.85913086 C379.67000927 286.93355352 380.00419129 282.00689797 380.3125 277.078125 C380.35624756 276.38420654 380.39999512 275.69028809 380.44506836 274.9753418 C380.55381561 273.2039599 380.65422331 271.43207135 380.75390625 269.66015625 C381 267 381 267 382 264 C382.09176655 262.45157998 382.12790402 260.89952485 382.12939453 259.34838867 C382.13254669 258.40698532 382.13569885 257.46558197 382.13894653 256.49565125 C382.1369223 255.48001602 382.13489807 254.4643808 382.1328125 253.41796875 C382.13376923 252.37103348 382.13472595 251.32409821 382.13571167 250.24543762 C382.13639255 248.02877747 382.13454468 245.81211532 382.13037109 243.59545898 C382.12503764 240.21137981 382.13031092 236.82743433 382.13671875 233.44335938 C382.13605764 231.28906221 382.13477579 229.13476512 382.1328125 226.98046875 C382.13584885 225.46612495 382.13584885 225.46612495 382.13894653 223.92118835 C382.12314787 219.15546766 381.93245158 214.69227829 381 210 C380.9008016 207.68812622 380.81911752 205.37546854 380.75 203.0625 C380.29238426 192.959659 377.87968658 183.23462112 375.55664062 173.42504883 C375.16526978 171.72001085 374.83169522 170.00118276 374.54101562 168.27612305 C374.2229649 165.86676933 374.2229649 165.86676933 372.1875 164.625 C369.63731678 163.89637622 368.47252995 164.12265066 366 165 C365.01 165.33 364.02 165.66 363 166 C362.96261719 166.7321875 362.92523438 167.464375 362.88671875 168.21875 C362.39787857 176.27023536 361.55190074 184.24602545 360.5625 192.25 C360.44028076 193.25482422 360.31806152 194.25964844 360.19213867 195.29492188 C359.49186364 200.83159935 358.57500111 206.25881371 357.43530273 211.72070312 C356.80801083 215.00527814 356.5348569 218.29488714 356.25 221.625 C354.9817468 234.54149546 352.25173879 247.26837813 349.76977539 259.99487305 C349.23170518 262.7691437 348.7153163 265.5464928 348.21264648 268.32739258 C348.08268784 269.04075775 347.95272919 269.75412292 347.8188324 270.48910522 C347.45949669 272.46866523 347.10460315 274.44903012 346.75 276.42944336 C345.81491653 280.88113469 344.42391003 285.07335759 342.8984375 289.3515625 C342.10852643 291.68008296 341.5368816 293.90478961 341.0625 296.3125 C338.91061838 306.69438503 335.12333225 316.73439912 330 326 C326.78710821 325.36177319 324.49037258 324.16526454 321.6875 322.5 C315.0322914 319.03769508 308.37727708 319.10820006 301 319 C301 318.34 301 317.68 301 317 C299.02 317.66 297.04 318.32 295 319 C294.566875 318.525625 294.13375 318.05125 293.6875 317.5625 C291.97690387 315.76313043 291.97690387 315.76313043 289 315 C290.34313185 311.21908383 292.02964684 308.34348084 294.5 305.1875 C295.1084375 304.39730469 295.716875 303.60710937 296.34375 302.79296875 C296.8903125 302.20128906 297.436875 301.60960937 298 301 C298.66 301 299.32 301 300 301 C300.18175781 300.40832031 300.36351562 299.81664062 300.55078125 299.20703125 C300.80214844 298.41683594 301.05351562 297.62664062 301.3125 296.8125 C301.55613281 296.03519531 301.79976563 295.25789063 302.05078125 294.45703125 C303 292 303 292 304.3828125 289.81640625 C306.69751881 285.78523898 308.06812467 281.5149284 309.5625 277.125 C309.86607422 276.25230469 310.16964844 275.37960937 310.48242188 274.48046875 C311.34120257 271.99206282 312.1926869 269.50561981 313 267 C313.33 266.00452148 313.66 265.00904297 314 263.98339844 C315.52266053 258.56687804 315.98047035 252.95690598 316.62109375 247.3828125 C316.91973119 244.89450836 317.21856541 242.40622782 317.51757812 239.91796875 C317.97934448 236.01909943 318.43809337 232.11991135 318.89282227 228.22021484 C319.33578993 224.44006487 319.79033274 220.66143827 320.24609375 216.8828125 C320.44313148 215.14803146 320.44313148 215.14803146 320.64414978 213.37820435 C321.42982237 206.91514693 322.66242155 201.07707536 325 195 C325.33 194.0409375 325.66 193.081875 326 192.09375 C328.69667924 185.09923822 332.34498603 179.13947388 336.47827148 172.93847656 C340.41250806 167.00651404 344.0352455 160.93194657 347.5625 154.75 C348.07498291 153.85676025 348.58746582 152.96352051 349.11547852 152.04321289 C351.35772401 148.08881696 353.3749004 144.25436382 355 140 C355.66 140 356.32 140 357 140 C357.061875 139.21625 357.12375 138.4325 357.1875 137.625 C357.91454969 134.38123986 358.75623007 132.37935491 360.296875 129.5 C363.12303734 123.95289131 365.14436055 118.28842767 367.0625 112.375 C367.40611572 111.32828125 367.74973145 110.2815625 368.10375977 109.203125 C372.80542649 94.67536522 376.20743909 80.84124525 376.0625 65.5 C376.05573242 64.12328125 376.05573242 64.12328125 376.04882812 62.71875 C376.03716326 60.47909609 376.02079614 58.23958455 376 56 C375.113125 55.731875 374.22625 55.46375 373.3125 55.1875 C370 54 370 54 367.60546875 52.40625 C364.18362317 50.55937682 361.11094008 50.46586655 357.3125 50.5 C356.1997168 50.50749268 356.1997168 50.50749268 355.06445312 50.51513672 C346.28877207 50.78223868 338.26991759 53.22667196 330 56 C329.24058105 56.25120605 328.48116211 56.50241211 327.69873047 56.76123047 C320.26114993 59.24253259 312.91602662 61.86703037 305.8046875 65.1875 C303.2676466 66.32971755 300.6566816 67.18255951 298 68 C298 68.66 298 69.32 298 70 C297.3709375 70.24234375 296.741875 70.4846875 296.09375 70.734375 C291.80102771 72.41526023 287.60120343 74.13908647 283.5 76.25 C280 78 280 78 278 78 C278 78.66 278 79.32 278 80 C275.90634718 81.62303345 273.81019984 83.13428845 271.625 84.625 C266.22423069 88.37993822 261.04057153 92.2837579 255.98828125 96.50390625 C254 98 254 98 251 99 C251 99.66 251 100.32 251 101 C246.23124768 104.87461126 241.76577826 107.04850582 236 109 C234.79617676 109.50345947 233.59235352 110.00691895 232.35205078 110.52563477 C228.25446829 112.05973698 224.43540273 112.4216703 220.08203125 112.36328125 C218.98539658 112.36532059 218.98539658 112.36532059 217.86660767 112.36740112 C215.51481764 112.36593727 213.16410844 112.34083912 210.8125 112.3125 C209.18172208 112.30182798 207.55094408 112.29116724 205.92016602 112.28051758 C194.19172155 112.17038411 182.62933609 111.57751932 171 110 C170.16710449 109.89816406 169.33420898 109.79632813 168.47607422 109.69140625 C158.50508556 108.46560457 149.9252044 106.85995719 141 102 C140.2884375 101.69320312 139.576875 101.38640625 138.84375 101.0703125 C133.04959746 98.55208467 129.24955518 94.58876579 125 90 C124.42894531 89.46503906 123.85789062 88.93007812 123.26953125 88.37890625 C122 87 122 87 122 85 C121.46375 84.773125 120.9275 84.54625 120.375 84.3125 C115.39552115 81.56068274 111.92154732 77.99384985 108.40234375 73.59765625 C106.1860146 71.07264616 103.65130379 68.95621404 101.09375 66.78515625 C99.73902304 65.63009987 98.40386874 64.45151038 97.09375 63.24609375 C92.7367364 59.25514072 88.18200248 56.02659193 83.1484375 52.9375 C80.89618886 51.55150083 78.68250883 50.14301894 76.4765625 48.6875 C64.36413272 40.77775658 51.46402499 34.30082058 38 29 C38 28.34 38 27.68 38 27 C36.00016916 26.66565328 34.00012053 26.33260933 32 26 C30.72125 25.77699219 29.4425 25.55398437 28.125 25.32421875 C26.75024513 25.11039714 25.37523975 24.89818052 24 24.6875 C23.31421875 24.56310547 22.6284375 24.43871094 21.921875 24.31054688 C17.90624808 23.724296 16.18283763 23.89397957 12.625 25.95703125 C11.325625 26.96830078 11.325625 26.96830078 10 28 C9.34 28 8.68 28 8 28 C7.53000376 40.74212024 8.16445027 51.82114106 12 64 C12.32355469 65.06734375 12.64710937 66.1346875 12.98046875 67.234375 C14.89861354 73.27848837 17.22913466 79.10319964 19.71484375 84.93359375 C21.04199162 88.10019277 22.27980533 91.29077327 23.5 94.5 C25.06754393 98.62151738 26.70391057 102.69572695 28.4375 106.75 C30.50828605 111.64458522 32.27697837 116.60139569 34 121.625 C35.94551519 127.28104672 38.07392328 132.64367115 40.921875 137.921875 C42 140 42 140 42.9609375 142.453125 C45.21009443 147.96609613 48.48701454 153.15079554 52.25 157.75 C56.076711 162.67005701 57.58956075 169.83097305 57 176 C55.88903552 178.63614315 54.48759436 181.08502827 53.0625 183.5625 C49.92971662 189.03279155 49.92971662 189.03279155 48 195 C47.34 195 46.68 195 46 195 C45.7525 195.825 45.505 196.65 45.25 197.5 C44.32346057 200.0943104 43.39993884 202.22570565 42.125 204.625 C34.62411213 219.65497456 33.37310333 236.84546598 38.63525391 252.94335938 C41.83702846 262.46471932 41.83702846 262.46471932 47 271 C47 271.99 47 272.98 47 274 C47.66 274 48.32 274 49 274 C50.14829977 276.269616 51.29371978 278.54060778 52.4375 280.8125 C52.76298828 281.45509766 53.08847656 282.09769531 53.42382812 282.75976562 C54.79232676 285.48265466 56.03483265 288.10449794 57 291 C57.99 291.33 58.98 291.66 60 292 C61.65255997 294.13688038 63.18136418 296.26419424 64.6875 298.5 C68.3392454 303.79320698 72.15945887 308.65777099 76.6015625 313.328125 C78 315 78 315 78 317 C78.56074219 317.24363281 79.12148437 317.48726563 79.69921875 317.73828125 C82.44729774 319.24529231 84.50037007 321.07199215 86.8125 323.1875 C88.13894531 324.39986328 88.13894531 324.39986328 89.4921875 325.63671875 C91.52453974 327.55194166 93.4943554 329.49583878 95.4375 331.5 C98.29697079 334.44097589 101.39323095 336.91335461 104.625 339.4375 C110.08928188 343.90964266 114.12327667 347.47254592 115.5 354.58203125 C116.09986021 364.11730912 113.15668298 373.16417556 110.60546875 382.25390625 C108.96093916 388.1398017 107.48221303 394.07114788 106 400 C71.02 400 36.04 400 0 400 C0 268 0 136 0 0 Z " fill="#B5B7B6" transform="translate(0,0)"/>
<path d="M0 0 C0.15855469 0.95261719 0.31710938 1.90523437 0.48046875 2.88671875 C0.83044922 4.76810547 0.83044922 4.76810547 1.1875 6.6875 C1.40792969 7.92886719 1.62835938 9.17023438 1.85546875 10.44921875 C3.18312971 14.5681396 4.77228369 16.18230378 8 19 C8.70382813 19.72703125 9.40765625 20.4540625 10.1328125 21.203125 C10.79023437 21.87859375 11.44765625 22.5540625 12.125 23.25 C12.78757813 23.93578125 13.45015625 24.6215625 14.1328125 25.328125 C17.88978678 28.69211034 22.22759213 28.32948989 27.015625 28.28515625 C34.08458596 27.60971888 40.43068657 24.28408726 46 20 C46.33 19.34 46.66 18.68 47 18 C47.66 18 48.32 18 49 18 C49 12.72 49 7.44 49 2 C56.87703292 2 56.87703292 2 61.171875 3.05859375 C62.08324219 3.27966797 62.99460937 3.50074219 63.93359375 3.72851562 C64.86300781 3.96248047 65.79242188 4.19644531 66.75 4.4375 C68.16732422 4.78264648 68.16732422 4.78264648 69.61328125 5.13476562 C73.12108581 5.99550003 76.57215563 6.85738521 80 8 C80 8.66 80 9.32 80 10 C80.825 10.0825 81.65 10.165 82.5 10.25 C90.27602554 11.91629119 95.8758671 16.20044666 101.6875 21.4375 C102.32494141 21.99759766 102.96238281 22.55769531 103.61914062 23.13476562 C114.84329997 33.06160212 121.02988791 42.31878733 122.28515625 57.43359375 C122.94220415 73.62392786 117.5388502 85.32093417 107 97 C94.67491842 110.27124946 77.1788134 116.2379973 59.47241211 117.11962891 C47.65268005 117.35368301 35.74217992 115.00420059 25.05419922 109.95239258 C22.98260898 108.99193697 20.88684541 108.17778125 18.75 107.375 C-3.50225613 97.429209 -21.74692354 74.33643551 -30.30859375 52.18359375 C-32.15159855 46.36303057 -32.21622221 40.73794601 -32.25 34.6875 C-32.270625 33.77548828 -32.29125 32.86347656 -32.3125 31.92382812 C-32.35698566 24.16664122 -30.78531991 17.32345845 -26 11 C-20.07458564 6 -20.07458564 6 -17 6 C-16.76925781 5.36578125 -16.53851563 4.7315625 -16.30078125 4.078125 C-15 2 -15 2 -12.79296875 1.171875 C-11.93316406 1.03265625 -11.07335937 0.8934375 -10.1875 0.75 C-9.33542969 0.60046875 -8.48335937 0.4509375 -7.60546875 0.296875 C-5.04418656 0.00503475 -2.57529259 -0.05548207 0 0 Z " fill="#C3BFBC" transform="translate(99,228)"/>
<path d="M0 0 C4.09176955 0.30309404 7.46165096 0.87699058 11 3 C11 3.66 11 4.32 11 5 C11.57105469 5.26554687 12.14210937 5.53109375 12.73046875 5.8046875 C18.439034 8.81126404 23.33506135 12.99631695 27.375 18 C30.8344704 22.17884626 34.88484645 24.64009779 39.5 27.41796875 C42.44135541 29.27929522 44.60722314 31.48128752 47 34 C48.44520192 35.14181983 49.90509 36.26516862 51.375 37.375 C55.05489572 40.17931321 58.30246873 43.16622302 61.4921875 46.51171875 C63.04616448 48.14842745 63.04616448 48.14842745 65.4375 49.5625 C67 51 67 51 67.4375 54 C67 57 67 57 65.625 58.8125 C62.27668274 61.25934723 59.79775748 61.16422561 55.6875 61.1875 C54.55699219 61.20167969 53.42648438 61.21585937 52.26171875 61.23046875 C46.57223675 60.82845745 46.57223675 60.82845745 44 59 C43.01 55.7 42.02 52.4 41 49 C27.14 48.67 13.28 48.34 -1 48 C-0.67 51.3 -0.34 54.6 0 58 C-5.2193712 58.6524214 -8.02909179 57.12076053 -12.265625 54.38671875 C-14.58065828 52.53573494 -15.88680994 50.86940026 -16.2746582 47.89038086 C-16.30321419 45.23894368 -16.32167514 42.58911439 -16.3125 39.9375 C-16.33666992 38.58108398 -16.33666992 38.58108398 -16.36132812 37.19726562 C-16.3712789 23.27613658 -10.80396569 12.45199867 -2 2 C-1.34 1.34 -0.68 0.68 0 0 Z " fill="#242322" transform="translate(118,267)"/>
<path d="M0 0 C1.87828884 0.683961 3.71867162 1.47006523 5.55078125 2.26953125 C6.33453125 2.59953125 7.11828125 2.92953125 7.92578125 3.26953125 C9.55078125 4.26953125 9.55078125 4.26953125 11.55078125 7.26953125 C14.11360867 7.99918491 14.11360867 7.99918491 16.55078125 8.26953125 C15.23078125 8.59953125 13.91078125 8.92953125 12.55078125 9.26953125 C13.04578125 10.25953125 13.04578125 10.25953125 13.55078125 11.26953125 C13.64728064 13.26763635 13.68058997 15.26910305 13.67578125 17.26953125 C13.67964844 18.87828125 13.67964844 18.87828125 13.68359375 20.51953125 C13.55078125 23.26953125 13.55078125 23.26953125 12.55078125 25.26953125 C11.89078125 25.26953125 11.23078125 25.26953125 10.55078125 25.26953125 C10.34324219 25.86378906 10.13570312 26.45804688 9.921875 27.0703125 C8.02030968 30.1204016 5.83902077 30.93604619 2.61328125 32.45703125 C1.55238281 32.96621094 0.49148437 33.47539062 -0.6015625 34 C-4.5344377 35.75333942 -7.54441274 36.44917827 -11.82421875 36.51953125 C-13.22800781 36.55820312 -13.22800781 36.55820312 -14.66015625 36.59765625 C-19.86431339 35.98540247 -23.27799595 32.73036815 -27.07421875 29.33203125 C-27.82960938 28.66300781 -28.585 27.99398437 -29.36328125 27.3046875 C-34.4906527 22.3021397 -36.34459101 17.56530493 -36.57421875 10.33203125 C-36.53296875 9.32140625 -36.49171875 8.31078125 -36.44921875 7.26953125 C-38.75921875 7.59953125 -41.06921875 7.92953125 -43.44921875 8.26953125 C-43.11921875 7.60953125 -42.78921875 6.94953125 -42.44921875 6.26953125 C-41.54171875 6.20765625 -40.63421875 6.14578125 -39.69921875 6.08203125 C-35.53535786 5.04106603 -34.69724525 3.39298769 -32.52734375 -0.13671875 C-27.68360958 -7.29702143 -7.09092813 -2.11483821 0 0 Z " fill="#8A3135" transform="translate(135.44921875,220.73046875)"/>
<path d="M0 0 C7.84563536 4.40835307 7.84563536 4.40835307 10.125 8.75 C11.15324594 13.9847066 11.78889625 18.96299513 10.8125 24.25 C8.41159632 27.57866803 5.43618445 29.43815778 1.8125 31.25 C-3.38837292 31.76838766 -7.80436478 31.91595399 -12.5625 29.625 C-18.91406749 23.8783437 -21.75878003 19.22315167 -22.5 10.625 C-22.07148975 5.99708926 -20.66181197 3.54002297 -17.1875 0.5 C-11.70153937 -2.92872539 -5.66266446 -2.73480954 0 0 Z " fill="#F5F5F6" transform="translate(230.1875,186.75)"/>
<path d="M0 0 C2.375 0.6875 2.375 0.6875 3.375 1.6875 C5.01373242 10.38798655 2.03913579 16.35270698 -2.38671875 23.5234375 C-4.5673929 26.60606588 -6.87483649 29.11068581 -9.625 31.6875 C-10.12 32.1825 -10.12 32.1825 -10.625 32.6875 C-12.29117115 32.72813832 -13.95888095 32.730221 -15.625 32.6875 C-15.955 31.0375 -16.285 29.3875 -16.625 27.6875 C-17.285 27.6875 -17.945 27.6875 -18.625 27.6875 C-19.58172686 20.51204852 -16.49487059 15.58525037 -12.625 9.6875 C-4.76014086 -0.56668344 -4.76014086 -0.56668344 0 0 Z " fill="#F0EFEC" transform="translate(72.625,180.3125)"/>
<path d="M0 0 C0.33 0 0.66 0 1 0 C0.86125385 3.77112931 0.71278907 7.54181445 0.5625 11.3125 C0.52318359 12.38435547 0.48386719 13.45621094 0.44335938 14.56054688 C0.38051758 16.10258789 0.38051758 16.10258789 0.31640625 17.67578125 C0.27974854 18.62364502 0.24309082 19.57150879 0.20532227 20.5480957 C0 23 0 23 -1 26 C-1.20310613 27.75919531 -1.36461868 29.52336373 -1.5 31.2890625 C-1.5825 32.31257813 -1.665 33.33609375 -1.75 34.390625 C-1.91726695 36.55464118 -2.08392934 38.71870418 -2.25 40.8828125 C-2.3325 41.90375 -2.415 42.9246875 -2.5 43.9765625 C-2.5721875 44.91580566 -2.644375 45.85504883 -2.71875 46.82275391 C-3 49 -3 49 -4 50 C-4.20451105 53.24945336 -4.34577659 56.49154921 -4.4296875 59.74609375 C-4.65701567 64.85150553 -5.8790523 68.36286237 -8 73 C-8.41152671 75.31174187 -8.41152671 75.31174187 -8.4375 77.4375 C-8.77047773 81.61743326 -10.07269028 84.39134111 -12.0859375 88.01953125 C-13.07469584 90.161841 -13.39145335 91.91020856 -13.625 94.25 C-13.96518873 97.65188729 -14.37971325 99.14067044 -16 102 C-16.67863055 103.9959722 -17.34641919 105.99568551 -18 108 C-18.33 108.66 -18.66 109.32 -19 110 C-18.79375 110.598125 -18.5875 111.19625 -18.375 111.8125 C-17.8343753 114.9661441 -19.31936482 116.37820912 -21 119 C-21 119.99 -21 120.98 -21 122 C-26.74135281 120.44701112 -31.92235211 118.64704014 -37.171875 115.8515625 C-39.71474907 114.66706133 -42.22524456 114.27747554 -45 114 C-45 113.34 -45 112.68 -45 112 C-46.32 111.67 -47.64 111.34 -49 111 C-42.60877695 110.40822009 -38.88170565 111.68713586 -33.296875 114.80859375 C-31.17166528 115.91095593 -29.33613368 116.53384488 -27 117 C-26.69707031 116.21238281 -26.39414062 115.42476563 -26.08203125 114.61328125 C-25.66308594 113.52402344 -25.24414062 112.43476563 -24.8125 111.3125 C-24.35875 110.1265625 -23.905 108.940625 -23.4375 107.71875 C-22.51688333 105.3371547 -21.5807713 102.96145616 -20.625 100.59375 C-18.38520805 94.99427013 -16.58797437 89.72289534 -15.58203125 83.78125 C-15.00799029 81.03818179 -14.20118104 78.43127958 -13.33544922 75.76831055 C-9.31672517 63.25030313 -7.57887813 50.30010321 -5.54345703 37.34912109 C-4.88563397 33.29520523 -4.11635138 29.27733583 -3.3125 25.25 C-1.69227501 16.89111197 -0.8329632 8.46682592 0 0 Z " fill="#5E5D5A" transform="translate(357,208)"/>
<path d="M0 0 C0.99 0.495 0.99 0.495 2 1 C-0.84538741 6.89095282 -3.55990193 9.98382703 -9.72265625 12.33203125 C-12.78147715 13.22921543 -15.83906808 13.62812566 -19 14 C-19.56589844 14.34546875 -20.13179688 14.6909375 -20.71484375 15.046875 C-24.06311107 16.44341727 -27.22375472 15.95829351 -30.75 15.625 C-31.44738281 15.56828125 -32.14476562 15.5115625 -32.86328125 15.453125 C-34.57639312 15.31232128 -36.28834611 15.15754028 -38 15 C-38 14.67 -38 14.34 -38 14 C-39.08716309 13.92483154 -39.08716309 13.92483154 -40.19628906 13.84814453 C-43.54796992 13.61300434 -46.8989561 13.36904341 -50.25 13.125 C-51.38953125 13.04636719 -52.5290625 12.96773437 -53.703125 12.88671875 C-60.34028309 12.39647412 -66.82816108 11.6373511 -73.3762207 10.44067383 C-75.89963045 10.01685745 -78.387312 9.75697556 -80.9375 9.5625 C-84.62050881 9.1902103 -86.94971204 8.17877711 -90 6 C-91.32608822 5.31903578 -92.65686601 4.64669414 -94 4 C-87.90942043 3.83861367 -82.25168839 4.43876702 -76.25 5.4375 C-63.6411209 7.51577739 -51.13639197 8.25244593 -38.37304688 8.35009766 C-36.79086645 8.36670078 -35.20876235 8.39404831 -33.62695312 8.43212891 C-23.2158185 8.67970552 -15.45086869 7.86124407 -6 3 C-5.08863281 2.63696777 -4.17726563 2.27393555 -3.23828125 1.89990234 C-1.06561629 1.19638129 -1.06561629 1.19638129 0 0 Z " fill="#71706E" transform="translate(246,103)"/>
<path d="M0 0 C0.391875 0.474375 0.78375 0.94875 1.1875 1.4375 C2.91255603 3.22595533 2.91255603 3.22595533 5.4375 3.25 C8 4 8 4 10.3125 7.1875 C12.03508366 10.53581523 12.36926929 13.21498981 12 17 C13.0725 17.144375 14.145 17.28875 15.25 17.4375 C19 18 19 18 21.3125 18.6875 C21.869375 18.790625 22.42625 18.89375 23 19 C23.66 18.34 24.32 17.68 25 17 C29 21 33 25 37 29 C36.34 29 35.68 29 35 29 C33.84607545 31.3078491 33.46562834 33.47230331 33 36 C33.66 36 34.32 36 35 36 C35.20625 36.598125 35.4125 37.19625 35.625 37.8125 C36.90671047 40.28332447 36.90671047 40.28332447 40 41.4375 C43 43 43 43 44.375 45.6875 C44.58125 46.450625 44.7875 47.21375 45 48 C41.16024098 46.40236977 38.41694354 43.81722778 35.4375 41 C34.37269092 40.00749582 33.30757978 39.01531562 32.2421875 38.0234375 C31.70432617 37.52038086 31.16646484 37.01732422 30.61230469 36.49902344 C27.26819114 33.38986881 23.86328662 30.34727813 20.47265625 27.2890625 C11.8599005 19.31580046 5.07512092 11.04518474 -1 1 C-0.67 0.67 -0.34 0.34 0 0 Z " fill="#474643" transform="translate(62,293)"/>
<path d="M0 0 C-1.32 0.33 -2.64 0.66 -4 1 C-4 1.99 -4 2.98 -4 4 C-4.99 4.66 -5.98 5.32 -7 6 C-7 6.33 -7 6.66 -7 7 C-7.886875 7.268125 -8.77375 7.53625 -9.6875 7.8125 C-12.95450027 8.86223164 -12.95450027 8.86223164 -15.5 10.5 C-18.25346512 12.15207907 -20.94225815 13.04870253 -24 14 C-24.66 14.33 -25.32 14.66 -26 15 C-26 14.34 -26 13.68 -26 13 C-26.75925781 13.2165625 -27.51851563 13.433125 -28.30078125 13.65625 C-29.29464844 13.9346875 -30.28851563 14.213125 -31.3125 14.5 C-32.29863281 14.7784375 -33.28476562 15.056875 -34.30078125 15.34375 C-37 16 -37 16 -40 16 C-40.20625 16.598125 -40.4125 17.19625 -40.625 17.8125 C-42.51103565 20.81301127 -44.82708953 21.54574937 -48 23 C-48.66 23.66 -49.32 24.32 -50 25 C-51.98821313 25.39764263 -53.98944339 25.73775349 -56 26 C-56.0928125 26.8971875 -56.0928125 26.8971875 -56.1875 27.8125 C-57.33796197 30.90989762 -59.13933412 31.43963679 -62 33 C-62.825 33.70125 -63.65 34.4025 -64.5 35.125 C-67.11170434 37.08377825 -68.79628135 37.63386073 -72 38 C-72.020625 38.5775 -72.04125 39.155 -72.0625 39.75 C-73.60679013 43.4562963 -76.4367181 44.31212963 -80 46 C-80.66 45.67 -81.32 45.34 -82 45 C-80.515 44.505 -80.515 44.505 -79 44 C-79 43.34 -79 42.68 -79 42 C-77.56640625 40.67480469 -77.56640625 40.67480469 -75.5625 39.171875 C-74.46615234 38.34236328 -74.46615234 38.34236328 -73.34765625 37.49609375 C-72.57292969 36.91988281 -71.79820312 36.34367187 -71 35.75 C-70.25621094 35.18925781 -69.51242187 34.62851563 -68.74609375 34.05078125 C-67.2492203 32.92357046 -65.74921087 31.80051203 -64.24609375 30.68164062 C-62.72948395 29.54616146 -61.22180582 28.39866813 -59.72265625 27.24023438 C-59.00980469 26.69173828 -58.29695313 26.14324219 -57.5625 25.578125 C-56.92441406 25.0821582 -56.28632813 24.58619141 -55.62890625 24.07519531 C-54 23 -54 23 -52 23 C-52 22.34 -52 21.68 -52 21 C-49.42141033 19.65673469 -46.83782579 18.32525335 -44.25 17 C-43.52039063 16.6184375 -42.79078125 16.236875 -42.0390625 15.84375 C-41.33007812 15.4828125 -40.62109375 15.121875 -39.890625 14.75 C-39.24125977 14.41484375 -38.59189453 14.0796875 -37.92285156 13.734375 C-36 13 -36 13 -32 13 C-32 12.34 -32 11.68 -32 11 C-24.55352102 7.21144052 -17.10529481 3.91290015 -9.1875 1.25 C-8.52041016 1.01667969 -7.85332031 0.78335938 -7.16601562 0.54296875 C-2.23672958 -1.11836479 -2.23672958 -1.11836479 0 0 Z " fill="#5F5D5B" transform="translate(330,57)"/>
<path d="M0 0 C1.32 0 2.64 0 4 0 C4 0.66 4 1.32 4 2 C4.66 2.33 5.32 2.66 6 3 C2.43569245 6.14985318 -0.40693504 8.5140084 -5 10 C-4.79375 10.5775 -4.5875 11.155 -4.375 11.75 C-3.90553064 14.56681617 -4.49375398 15.62171681 -6 18 C-6.66 18.66 -7.32 19.32 -8 20 C-7.70630173 21.34262065 -7.3721042 22.67696283 -7 24 C-8 26 -8 26 -9.53125 27.23828125 C-11.6670835 29.80014536 -11.40736429 31.89507259 -11.5 35.1875 C-11.87685856 42.33211018 -11.87685856 42.33211018 -13.5 45.8125 C-16.24527165 51.98601332 -15.76615037 59.35544504 -16 66 C-16.66 66 -17.32 66 -18 66 C-20.62109056 47.11525737 -19.26051196 31.53520966 -9 15 C-8.67 14.34 -8.34 13.68 -8 13 C-7.34 13 -6.68 13 -6 13 C-5.9175 12.13375 -5.835 11.2675 -5.75 10.375 C-4.8324892 6.24620141 -3.01481551 3.01481551 0 0 Z " fill="#787775" transform="translate(54,182)"/>
<path d="M0 0 C2.53559113 1.26779557 4.10056922 2.91062614 6 5 C6 5.66 6 6.32 6 7 C7.32 7.33 8.64 7.66 10 8 C10.33 9.32 10.66 10.64 11 12 C10.34 12 9.68 12 9 12 C9.99 14.31 10.98 16.62 12 19 C11.34 19 10.68 19 10 19 C10.185625 19.94875 10.37125 20.8975 10.5625 21.875 C11 25 11 25 10 27 C10.66 27.33 11.32 27.66 12 28 C11.55005243 29.79379098 11.08975857 31.58498928 10.625 33.375 C10.36976562 34.37273437 10.11453125 35.37046875 9.8515625 36.3984375 C9 39 9 39 7 41 C6.63473747 43.32854865 6.30649316 45.66298962 6 48 C5.4740625 49.794375 5.4740625 49.794375 4.9375 51.625 C4.10072596 54.63738655 3.81257606 56.90750499 4 60 C2.02 60 0.04 60 -2 60 C-1.12739609 53.00412382 0.40391113 46.36925182 2.28955078 39.58666992 C7.16052682 24.41982142 7.16052682 24.41982142 4.640625 9.328125 C3.06329007 6.88622976 3.06329007 6.88622976 1.3125 4.8046875 C0 3 0 3 0 0 Z " fill="#6D6B69" transform="translate(108,340)"/>
<path d="M0 0 C1.28802272 4.2967819 0.54017436 7.98088711 -0.25 12.3125 C-0.45870728 13.50540649 -0.45870728 13.50540649 -0.67163086 14.72241211 C-1.99128792 22.17323897 -3.45674104 29.592357 -5 37 C-5.17402344 37.8971875 -5.34804688 38.794375 -5.52734375 39.71875 C-6.44317337 44.26005391 -7.80196765 47.87868935 -10 52 C-12.35718732 57.95499955 -12.45958396 62.79676819 -11 69 C-15.93264249 66.62176166 -15.93264249 66.62176166 -18 64 C-18.63220873 59.61172762 -18.40624683 55.40423153 -18 51 C-17.01 51.33 -16.02 51.66 -15 52 C-13.79371992 49.66785852 -12.8345262 47.50357861 -12 45 C-11.34 45 -10.68 45 -10 45 C-9.10019596 40.5708675 -8.26726971 36.13014264 -7.4375 31.6875 C-7.29892578 30.94693359 -7.16035156 30.20636719 -7.01757812 29.44335938 C-6.67810945 27.62895786 -6.33901677 25.81448601 -6 24 C-5.34 24 -4.68 24 -4 24 C-4.03480469 23.23816406 -4.06960938 22.47632813 -4.10546875 21.69140625 C-4.28659092 14.78288921 -3.61506202 9.38183529 -1 3 C-0.67 2.01 -0.34 1.02 0 0 Z " fill="#646564" transform="translate(378,304)"/>
<path d="M0 0 C2.6832907 2.60662526 5.18513498 5.18548886 7.5 8.125 C9.87115264 10.85182553 11.86204489 12.29653866 15 14 C15 14.33 15 14.66 15 15 C8.07 15 1.14 15 -6 15 C-6 7.125 -6 7.125 -3 3.5625 C-2.443125 2.88316406 -1.88625 2.20382812 -1.3125 1.50390625 C-0.6628125 0.75947266 -0.6628125 0.75947266 0 0 Z " fill="#A9A5A2" transform="translate(126,288)"/>
<path d="M0 0 C0.33 0 0.66 0 1 0 C1.01417969 0.88042969 1.02835937 1.76085937 1.04296875 2.66796875 C1.19536024 9.89209584 1.19536024 9.89209584 4.3125 16.1875 C8.6511671 19.11357781 11.76179526 20.28569935 17 21 C15.02 21.99 15.02 21.99 13 23 C13 23.66 13 24.32 13 25 C13.66 25 14.32 25 15 25 C14.67 26.32 14.34 27.64 14 29 C9.76666894 27.57096265 6.85201133 25.48388153 3.4375 22.625 C2.50808594 21.85414063 1.57867187 21.08328125 0.62109375 20.2890625 C-1.68781118 18.2726418 -3.86623643 16.19903163 -6 14 C-5.03126953 13.6596875 -5.03126953 13.6596875 -4.04296875 13.3125 C-1.76341954 12.17813036 -1.76341954 12.17813036 -1.42578125 9.6875 C-1.38839844 8.800625 -1.35101563 7.91375 -1.3125 7 C-1.06472492 2.12944984 -1.06472492 2.12944984 0 0 Z " fill="#AAA6A2" transform="translate(101,304)"/>
<path d="M0 0 C1.32162479 3.96487438 0.5209254 7.21808639 -0.125 11.25 C-1.26992627 18.72557424 -2.29203854 26.20858507 -3.2109375 33.71484375 C-3.31673126 34.57153656 -3.42252502 35.42822937 -3.53152466 36.31088257 C-4.17734198 41.54088481 -4.17734198 41.54088481 -4.80718994 46.77282715 C-6.95644966 64.82764899 -6.95644966 64.82764899 -10 73 C-10.33 73 -10.66 73 -11 73 C-10.51423247 68.91492638 -9.99442235 64.85072116 -9.31640625 60.79296875 C-7.49968868 49.7954035 -6.411885 38.8564572 -5.73461914 27.72924805 C-4.38462388 6.51889853 -4.38462388 6.51889853 0 0 Z " fill="#636564" transform="translate(323,197)"/>
<path d="M0 0 C0.69794678 -0.01417969 1.39589355 -0.02835938 2.11499023 -0.04296875 C6.87317562 0.05004404 9.30434267 1.27095621 12.6875 4.5625 C11.3675 4.8925 10.0475 5.2225 8.6875 5.5625 C8.6875 4.9025 8.6875 4.2425 8.6875 3.5625 C7.6975 3.8925 6.7075 4.2225 5.6875 4.5625 C3.60375765 4.55686826 1.51998328 4.51014477 -0.5625 4.4375 C-5.98590792 4.38955827 -9.40617196 5.15562209 -14.3125 7.5625 C-17.62224572 8.37035214 -20.95501326 8.98828195 -24.3125 9.5625 C-23.3225 8.5725 -22.3325 7.5825 -21.3125 6.5625 C-22.240625 6.871875 -22.240625 6.871875 -23.1875 7.1875 C-23.88875 7.31125 -24.59 7.435 -25.3125 7.5625 C-25.9725 6.9025 -26.6325 6.2425 -27.3125 5.5625 C-18.27450331 2.60268822 -9.57407075 0.06766875 0 0 Z " fill="#3A3A39" transform="translate(357.3125,49.4375)"/>
<path d="M0 0 C0.66 0.33 1.32 0.66 2 1 C-0.84538741 6.89095282 -3.55990193 9.98382703 -9.72265625 12.33203125 C-12.78147715 13.22921543 -15.83906808 13.62812566 -19 14 C-19.56589844 14.34546875 -20.13179687 14.6909375 -20.71484375 15.046875 C-24.06311107 16.44341727 -27.22375472 15.95829351 -30.75 15.625 C-31.79607422 15.53992188 -31.79607422 15.53992188 -32.86328125 15.453125 C-34.57639312 15.31232128 -36.28834611 15.15754028 -38 15 C-38 14.67 -38 14.34 -38 14 C-40.64 13.67 -43.28 13.34 -46 13 C-46 12.67 -46 12.34 -46 12 C-45.25427734 11.98541748 -44.50855469 11.97083496 -43.74023438 11.95581055 C-40.3263296 11.88084662 -36.91335131 11.78434562 -33.5 11.6875 C-32.32695312 11.66494141 -31.15390625 11.64238281 -29.9453125 11.61914062 C-23.25798425 11.4125097 -18.10247248 10.75168565 -12 8 C-10.58333333 7.54166667 -9.16666667 7.08333333 -7.75 6.625 C-4.02816515 5.2549545 -2.18132951 3.362883 0 0 Z " fill="#5E5C5B" transform="translate(246,103)"/>
<path d="M0 0 C0.99 0.495 0.99 0.495 2 1 C2.33 1.99 2.66 2.98 3 4 C3.66 4.33 4.32 4.66 5 5 C5.34541851 7.33157492 5.67794257 9.66508361 6 12 C6.99 13.485 6.99 13.485 8 15 C8 15.99 8 16.98 8 18 C8.66 18 9.32 18 10 18 C12.42326037 23.22039519 13.91460687 28.25877587 15.125 33.875 C15.81683511 38.83266162 15.81683511 38.83266162 18 43 C18.04080783 44.99958364 18.04254356 47.00045254 18 49 C16.26137695 46.39206542 15.27073414 44.32933001 14.1953125 41.4296875 C13.85886719 40.5325 13.52242187 39.6353125 13.17578125 38.7109375 C12.82902344 37.77507812 12.48226563 36.83921875 12.125 35.875 C10.17755334 30.63244396 8.23526485 25.43178442 5.8828125 20.35546875 C3.97310366 16.14229667 2.77903155 11.93740436 1.75 7.4375 C1.57726562 6.71498047 1.40453125 5.99246094 1.2265625 5.24804688 C0.80993657 3.50053254 0.40380144 1.75052218 0 0 Z " fill="#5F5D5D" transform="translate(8,52)"/>
<path d="M0 0 C-1.32 0.33 -2.64 0.66 -4 1 C-4 1.99 -4 2.98 -4 4 C-4.99 4.66 -5.98 5.32 -7 6 C-7 6.33 -7 6.66 -7 7 C-7.886875 7.268125 -8.77375 7.53625 -9.6875 7.8125 C-12.95450027 8.86223164 -12.95450027 8.86223164 -15.5 10.5 C-18.25346512 12.15207907 -20.94225815 13.04870253 -24 14 C-24.99 14.495 -24.99 14.495 -26 15 C-26 14.34 -26 13.68 -26 13 C-26.99 12.67 -27.98 12.34 -29 12 C-28 9 -28 9 -25.92578125 7.9375 C-24.63220703 7.4734375 -24.63220703 7.4734375 -23.3125 7 C-20.41896155 5.92362007 -17.74325565 4.86627898 -15 3.4375 C-3.82978723 -1.91489362 -3.82978723 -1.91489362 0 0 Z " fill="#504F4D" transform="translate(330,57)"/>
<path d="M0 0 C1.91693138 3.83386275 0.09300793 8.65812683 -0.625 12.75 C-0.80740234 13.79027344 -0.98980469 14.83054687 -1.17773438 15.90234375 C-3.17591806 26.73424857 -6.21797105 36.55601938 -12 46 C-13.072238 48.30943568 -14.03739726 50.64162329 -15 53 C-15.66 53 -16.32 53 -17 53 C-17.66 54.32 -18.32 55.64 -19 57 C-19.66 56.01 -20.32 55.02 -21 54 C-20.57847656 53.30132812 -20.15695312 52.60265625 -19.72265625 51.8828125 C-18.90087891 50.51769531 -18.90087891 50.51769531 -18.0625 49.125 C-17.24458984 47.76761719 -17.24458984 47.76761719 -16.41015625 46.3828125 C-15.56101983 44.94798364 -14.74562276 43.49124552 -14 42 C-13.34 42 -12.68 42 -12 42 C-10.16642145 36.8293085 -8.60976249 31.71710496 -7.52734375 26.3359375 C-7.10359678 24.45889537 -6.59953988 22.60007217 -6.0703125 20.75 C-4.71701134 16.00850687 -3.56154131 11.22787863 -2.41210938 6.43359375 C-1.10824922 1.10824922 -1.10824922 1.10824922 0 0 Z " fill="#444544" transform="translate(315,248)"/>
<path d="M0 0 C2.98357728 1.1155527 5.01801658 2.86233406 7.46484375 4.890625 C8.356875 5.62410156 9.24890625 6.35757812 10.16796875 7.11328125 C10.8434375 7.67917969 11.51890625 8.24507813 12.21484375 8.828125 C8.51953125 12.6953125 8.51953125 12.6953125 5.77734375 13.890625 C3.21484375 13.828125 3.21484375 13.828125 0.40234375 11.515625 C-1.78515625 8.828125 -1.78515625 8.828125 -1.78515625 6.828125 C-2.44515625 6.828125 -3.10515625 6.828125 -3.78515625 6.828125 C-4.47265625 5.015625 -4.47265625 5.015625 -4.78515625 2.828125 C-3.36289112 0.65729928 -2.66338889 -0.25643132 0 0 Z " fill="#403F3C" transform="translate(98.78515625,322.171875)"/>
<path d="M0 0 C2.53559113 1.26779557 4.10056922 2.91062614 6 5 C6 5.66 6 6.32 6 7 C7.32 7.33 8.64 7.66 10 8 C10.33 9.32 10.66 10.64 11 12 C10.34 12 9.68 12 9 12 C9.99 14.31 10.98 16.62 12 19 C11.34 19 10.68 19 10 19 C10.185625 19.94875 10.37125 20.8975 10.5625 21.875 C11 25 11 25 10 27 C10.66 27.33 11.32 27.66 12 28 C11.57674417 29.79508501 11.13589265 31.5860283 10.6875 33.375 C10.44386719 34.37273437 10.20023438 35.37046875 9.94921875 36.3984375 C9 39 9 39 6 41 C5.87467101 33.48026068 5.87467101 33.48026068 6.48828125 31.12890625 C8.28668237 23.64700848 7.81058493 15.66852363 4 9 C3.278125 7.9275 2.55625 6.855 1.8125 5.75 C0 3 0 3 0 0 Z " fill="#54514E" transform="translate(108,340)"/>
<path d="M0 0 C0.33 0 0.66 0 1 0 C0.86125385 3.77112931 0.71278907 7.54181445 0.5625 11.3125 C0.52318359 12.38435547 0.48386719 13.45621094 0.44335938 14.56054688 C0.40146484 15.58857422 0.35957031 16.61660156 0.31640625 17.67578125 C0.26141968 19.0975769 0.26141968 19.0975769 0.20532227 20.5480957 C0 23 0 23 -1 26 C-1.18005323 27.68918825 -1.31811278 29.38303586 -1.4296875 31.078125 C-1.50316406 32.07457031 -1.57664062 33.07101563 -1.65234375 34.09765625 C-1.79964508 36.18313293 -1.94037527 38.26908514 -2.07421875 40.35546875 C-2.52149101 46.24581701 -3.33743065 50.72327165 -6 56 C-6.68836513 57.99263591 -7.36281399 59.99041337 -8 62 C-8.33 62 -8.66 62 -9 62 C-8.51761468 53.32930227 -7.16967308 44.9460079 -5.47369385 36.44238281 C-3.06776614 24.34596256 -0.9912743 12.30547402 0 0 Z " fill="#6D6D6A" transform="translate(357,208)"/>
<path d="M0 0 C2.3125 1.625 2.3125 1.625 4 4 C4.375 7.125 4.375 7.125 4 10 C2 12 2 12 -0.875 12.4375 C-4 12 -4 12 -6.4375 9.875 C-8 7 -8 7 -7.875 3.75 C-7.58625 2.8425 -7.2975 1.935 -7 1 C-4.4086487 -0.29567565 -2.87704151 -0.34250494 0 0 Z " fill="#4D4D4E" transform="translate(228,195)"/>
<path d="M0 0 C4.0311783 1.3437261 4.80130597 3.45371931 7 7 C7.99 8.485 7.99 8.485 9 10 C8.625 12.1875 8.625 12.1875 8 14 C6.741875 13.87625 5.48375 13.7525 4.1875 13.625 C3.47980469 13.55539062 2.77210937 13.48578125 2.04296875 13.4140625 C0 13 0 13 -3 11 C-3.98515378 8.37643538 -4.42238929 5.75475877 -5 3 C-4.34 2.67 -3.68 2.34 -3 2 C-3 2.66 -3 3.32 -3 4 C-2.34 4 -1.68 4 -1 4 C-0.67 2.68 -0.34 1.36 0 0 Z " fill="#403D3B" transform="translate(77,299)"/>
<path d="M0 0 C6.5705166 -0.24794402 12.56971459 0.67611771 19 2 C19 2.66 19 3.32 19 4 C19.7528125 4.04898438 20.505625 4.09796875 21.28125 4.1484375 C30.23739348 4.77884566 39.10312297 5.82364784 48 7 C44.8346296 8.88667171 42.83500521 9.18022316 39.19140625 8.79296875 C38.27939453 8.70080078 37.36738281 8.60863281 36.42773438 8.51367188 C35.48220703 8.40603516 34.53667969 8.29839844 33.5625 8.1875 C32.62083984 8.09146484 31.67917969 7.99542969 30.70898438 7.89648438 C26.41417179 7.44487741 22.23261551 6.86210926 18 6 C16.50119437 5.86141181 15.00110116 5.73599692 13.5 5.625 C9.63418371 5.22110875 7.20410911 4.28864936 4 2 C2.67391178 1.31903578 1.34313399 0.64669414 0 0 Z " fill="#5E5E5C" transform="translate(152,107)"/>
<path d="M0 0 C0.495 0.99 0.495 0.99 1 2 C-8.21340131 2.16387473 -8.21340131 2.16387473 -12 1.375 C-16.41836851 0.82270394 -20.84651248 1.34906341 -25 3 C-27.74665327 6.7469776 -27.41905736 11.15970759 -27.65625 15.63671875 C-27.7696875 16.41660156 -27.883125 17.19648438 -28 18 C-28.66 18.33 -29.32 18.66 -30 19 C-31.1577506 15.52674819 -31.06866652 12.63932552 -31 9 C-33.31 9.33 -35.62 9.66 -38 10 C-37.67 9.34 -37.34 8.68 -37 8 C-36.0925 7.938125 -35.185 7.87625 -34.25 7.8125 C-30.08613911 6.77153478 -29.2480265 5.12345644 -27.078125 1.59375 C-23.16173063 -4.19570255 -6.27265885 -1.44858788 0 0 Z " fill="#854346" transform="translate(130,219)"/>
<path d="M0 0 C0.33 0 0.66 0 1 0 C1.51775784 13.82605197 1.51775784 13.82605197 -0.4375 17.8125 C-1.90337956 20.80289431 -2.24976458 22.34670865 -2.5 25.5625 C-2.82421429 29.591035 -3.92642375 32.48393592 -6 36 C-8.99826311 27.00521068 -5.99316132 18.60806979 -3 10 C-1.88069349 6.68205569 -0.78767197 3.4132452 0 0 Z " fill="#5D5B59" transform="translate(351,260)"/>
<path d="M0 0 C7.82692308 6.13461538 7.82692308 6.13461538 9 12 C11.00625967 17.35870817 11.00625967 17.35870817 15 21 C15.84228734 23.2931383 16.46932939 25.61494957 17.12109375 27.96875 C17.41113281 28.6390625 17.70117188 29.309375 18 30 C18.99 30.33 19.98 30.66 21 31 C19.02 31.99 19.02 31.99 17 33 C13.25627734 27.56938255 10.80610595 22.34339651 9 16 C8.34 16 7.68 16 7 16 C6 14 5 12 4 10 C3.64035156 9.30390625 3.28070313 8.6078125 2.91015625 7.890625 C2.54792969 7.18421875 2.18570313 6.4778125 1.8125 5.75 C1.46832031 5.08484375 1.12414063 4.4196875 0.76953125 3.734375 C0 2 0 2 0 0 Z " fill="#555452" transform="translate(40,258)"/>
<path d="M0 0 C0.66 0.33 1.32 0.66 2 1 C1.67867905 7.0275378 1.11069073 11.95541172 -1.30078125 17.54296875 C-2.98173108 23.44977012 -2.78509784 29.89381436 -3 36 C-3.33 36 -3.66 36 -4 36 C-5.81577523 22.60865765 -5.22211416 12.43982194 0 0 Z " fill="#5A5755" transform="translate(41,212)"/>
<path d="M0 0 C0.33 0 0.66 0 1 0 C0.25 6.75 0.25 6.75 -2 9 C-2.33 10.010625 -2.66 11.02125 -3 12.0625 C-4 15 -4 15 -6 16 C-6.66 15.67 -7.32 15.34 -8 15 C-7.566875 15.86625 -7.566875 15.86625 -7.125 16.75 C-6.40832122 18.18335756 -5.69914682 19.62050968 -5 21.0625 C-3.92596291 23.23163505 -3.92596291 23.23163505 -2 26 C-2.33 26.99 -2.66 27.98 -3 29 C-3.433125 28.54625 -3.86625 28.0925 -4.3125 27.625 C-6.10798342 25.79975666 -6.10798342 25.79975666 -9 24 C-9.29296875 20.9609375 -9.29296875 20.9609375 -9.1875 17.375 C-9.16042969 16.18648438 -9.13335937 14.99796875 -9.10546875 13.7734375 C-9.07066406 12.85820312 -9.03585937 11.94296875 -9 11 C-8.01 11.33 -7.02 11.66 -6 12 C-4.79371992 9.66785852 -3.8345262 7.50357861 -3 5 C-2.34 5 -1.68 5 -1 5 C-0.67 3.35 -0.34 1.7 0 0 Z " fill="#585A5A" transform="translate(369,344)"/>
<path d="M0 0 C0 0.33 0 0.66 0 1 C-8.58 1 -17.16 1 -26 1 C-26.66 2.32 -27.32 3.64 -28 5 C-29.5 7.25 -29.5 7.25 -31 9 C-31.66 9 -32.32 9 -33 9 C-31.75854982 4.03419926 -30.33329746 1.75755293 -26 -1 C-17.13525012 -4.85423908 -8.96395719 -2.26457866 0 0 Z " fill="#643D3C" transform="translate(130,218)"/>
<path d="M0 0 C0.33 0.66 0.66 1.32 1 2 C0.67 2.66 0.34 3.32 0 4 C-0.66 4 -1.32 4 -2 4 C-1.7215625 4.928125 -1.7215625 4.928125 -1.4375 5.875 C-1 8 -1 8 -2 10 C-2.99 10 -3.98 10 -5 10 C-5.66 11.98 -6.32 13.96 -7 16 C-6.38125 16.12375 -5.7625 16.2475 -5.125 16.375 C-3 17 -3 17 -1 19 C-2.65 19.66 -4.3 20.32 -6 21 C-6.433125 20.525625 -6.86625 20.05125 -7.3125 19.5625 C-9.02309613 17.76313043 -9.02309613 17.76313043 -12 17 C-10.65686815 13.21908383 -8.97035316 10.34348084 -6.5 7.1875 C-5.8915625 6.39730469 -5.283125 5.60710937 -4.65625 4.79296875 C-3.83640625 3.90544922 -3.83640625 3.90544922 -3 3 C-2.34 3 -1.68 3 -1 3 C-0.67 2.01 -0.34 1.02 0 0 Z " fill="#959593" transform="translate(301,298)"/>
<path d="M0 0 C0.99 0.33 1.98 0.66 3 1 C2.71382812 1.56203125 2.42765625 2.1240625 2.1328125 2.703125 C0.98584069 5.02870923 -0.07839794 7.37770201 -1.125 9.75 C-1.47820313 10.54921875 -1.83140625 11.3484375 -2.1953125 12.171875 C-2.46085937 12.77515625 -2.72640625 13.3784375 -3 14 C-4.66666667 14 -6.33333333 14 -8 14 C-8.33663062 10.29706315 -8.47736015 8.60465619 -6.125 5.625 C-4 4 -4 4 -2 4 C-1.34 2.68 -0.68 1.36 0 0 Z " fill="#615D5B" transform="translate(59,186)"/>
<path d="M0 0 C0.99 0.495 0.99 0.495 2 1 C2.33 1.99 2.66 2.98 3 4 C3.66 4.33 4.32 4.66 5 5 C5.34541851 7.33157492 5.67794257 9.66508361 6 12 C6.99 13.485 6.99 13.485 8 15 C8 15.99 8 16.98 8 18 C8.66 18 9.32 18 10 18 C10.33 19.98 10.66 21.96 11 24 C10.01 24 9.02 24 8 24 C4.03319846 16.24348627 1.39197161 8.60824546 0 0 Z " fill="#6C6B6A" transform="translate(8,52)"/>
<path d="M0 0 C2.0081326 0.28020455 4.0075675 0.62406934 6 1 C8 1.33333333 10 1.66666667 12 2 C10.02 2.99 10.02 2.99 8 4 C8 4.66 8 5.32 8 6 C8.66 6 9.32 6 10 6 C9.67 7.32 9.34 8.64 9 10 C5.55974272 8.75768487 2.69792186 7.50521315 0 5 C-0.8125 2.875 -0.8125 2.875 -1 1 C-0.67 0.67 -0.34 0.34 0 0 Z " fill="#AFABA8" transform="translate(106,323)"/>
<path d="M0 0 C0.66 0 1.32 0 2 0 C1.38722388 2.96175123 0.74627478 4.38058783 -1 7 C-1.77859375 7.46277344 -2.5571875 7.92554688 -3.359375 8.40234375 C-6.2441384 10.14771095 -8.05312056 12.01764157 -10.25 14.5625 C-11.27867187 15.74005859 -11.27867187 15.74005859 -12.328125 16.94140625 C-14.03727941 18.89395781 -14.03727941 18.89395781 -15 21 C-15.99 20.67 -16.98 20.34 -18 20 C-17.608125 19.484375 -17.21625 18.96875 -16.8125 18.4375 C-15.80858862 17.08741229 -14.81958693 15.72426229 -13.8984375 14.31640625 C-11.06247457 10.06246186 -8.48655656 7.49253142 -4 5 C-3.34 5 -2.68 5 -2 5 C-1.34 3.35 -0.68 1.7 0 0 Z " fill="#424140" transform="translate(287,315)"/>
<path d="M0 0 C1.29249422 4.31890991 0.57829918 8.07539882 -0.1875 12.4375 C-0.32260986 13.23140137 -0.45771973 14.02530273 -0.59692383 14.84326172 C-1.83616073 21.76599154 -3.68668198 28.35361422 -6 35 C-6.33 35 -6.66 35 -7 35 C-6.67 31.37 -6.34 27.74 -6 24 C-5.34 24 -4.68 24 -4 24 C-4.03480469 23.23816406 -4.06960938 22.47632813 -4.10546875 21.69140625 C-4.28659092 14.78288921 -3.61506202 9.38183529 -1 3 C-0.67 2.01 -0.34 1.02 0 0 Z " fill="#575958" transform="translate(378,304)"/>
<path d="M0 0 C0.66 0.66 1.32 1.32 2 2 C1.625 5.625 1.625 5.625 1 9 C0.01 9.33 -0.98 9.66 -2 10 C-2 10.66 -2 11.32 -2 12 C-2.598125 12.144375 -3.19625 12.28875 -3.8125 12.4375 C-5.56150404 12.8872439 -7.28677023 13.42892341 -9 14 C-9.66 13.34 -10.32 12.68 -11 12 C-9.66666667 10.66666667 -8.33333333 9.33333333 -7 8 C-6.29875 7.2575 -5.5975 6.515 -4.875 5.75 C-3 4 -3 4 -1 4 C-0.67 2.68 -0.34 1.36 0 0 Z " fill="#F1E6E8" transform="translate(149,242)"/>
<path d="M0 0 C1.5778125 0.4021875 1.5778125 0.4021875 3.1875 0.8125 C2.1975 2.2975 2.1975 2.2975 1.1875 3.8125 C-0.1325 3.8125 -1.4525 3.8125 -2.8125 3.8125 C-2.8125 5.4625 -2.8125 7.1125 -2.8125 8.8125 C-3.8025 8.8125 -4.7925 8.8125 -5.8125 8.8125 C-7.48349977 9.12338368 -9.15121537 9.45330332 -10.8125 9.8125 C-8.99245163 4.02143701 -6.4917012 -0.31926399 0 0 Z " fill="#343230" transform="translate(121.8125,267.1875)"/>
<path d="M0 0 C0.391875 0.474375 0.78375 0.94875 1.1875 1.4375 C2.91255603 3.22595533 2.91255603 3.22595533 5.4375 3.25 C8 4 8 4 10.3125 7.25 C11.86153955 10.26720555 12.41568879 12.57056749 12 16 C10.5 14.625 10.5 14.625 9 13 C9 12.34 9 11.68 9 11 C8.34 11 7.68 11 7 11 C7 10.34 7 9.68 7 9 C6.4225 8.979375 5.845 8.95875 5.25 8.9375 C1.61609879 7.4233745 0.75149584 4.44043825 -1 1 C-0.67 0.67 -0.34 0.34 0 0 Z " fill="#444340" transform="translate(62,293)"/>
<path d="M0 0 C0.33 0 0.66 0 1 0 C0.125 7.625 0.125 7.625 -1 11 C-6.12415824 9.66326307 -10.89217578 7.87817366 -15.765625 5.8046875 C-18.07461296 4.83058202 -18.07461296 4.83058202 -21 5 C-21 4.34 -21 3.68 -21 3 C-22.32 2.67 -23.64 2.34 -25 2 C-18.60877695 1.40822009 -14.88170565 2.68713586 -9.296875 5.80859375 C-6.80836784 7.21182064 -6.80836784 7.21182064 -3 8 C-2.01 5.36 -1.02 2.72 0 0 Z " fill="#757574" transform="translate(333,317)"/>
<path d="M0 0 C3.875 0.875 3.875 0.875 5 2 C5.46808511 7.38297872 5.46808511 7.38297872 3.625 9.8125 C0.35428264 12.20263961 -2.00333956 12.08688392 -6 12 C-6 11.67 -6 11.34 -6 11 C-4.35 11 -2.7 11 -1 11 C-1 9.68 -1 8.36 -1 7 C-0.68848712 4.66365343 -0.35840222 2.32961443 0 0 Z " fill="#2D2D2C" transform="translate(180,316)"/>
<path d="M0 0 C-0.75794621 7.88264059 -0.75794621 7.88264059 -4 11 C-4.99 11 -5.98 11 -7 11 C-7.35475877 7.18634321 -7.2619932 5.41557542 -5.1875 2.125 C-3 0 -3 0 0 0 Z " fill="#55544F" transform="translate(68,190)"/>
<path d="M0 0 C-9.22551253 6.70387244 -9.22551253 6.70387244 -15 7 C-14.01 6.01 -13.02 5.02 -12 4 C-12.928125 4.309375 -12.928125 4.309375 -13.875 4.625 C-14.57625 4.74875 -15.2775 4.8725 -16 5 C-16.66 4.34 -17.32 3.68 -18 3 C-15.75376301 2.30030318 -13.50283586 1.61564957 -11.25 0.9375 C-9.99703125 0.55464844 -8.7440625 0.17179687 -7.453125 -0.22265625 C-4.3261992 -0.92656828 -2.90533954 -1.16653785 0 0 Z " fill="#535251" transform="translate(348,52)"/>
<path d="M0 0 C0 0.66 0 1.32 0 2 C0.66 2.33 1.32 2.66 2 3 C-4.28571429 8.57142857 -4.28571429 8.57142857 -8 9 C-7.39622642 3.56603774 -7.39622642 3.56603774 -5.6875 1.125 C-4 0 -4 0 0 0 Z " fill="#706D6B" transform="translate(58,182)"/>
<path d="M0 0 C7.38012878 3.52148277 14.33359321 7.25271032 21 12 C20.67 12.66 20.34 13.32 20 14 C16.83582328 12.46226926 13.7867651 10.77588602 10.75 9 C9.85796875 8.484375 8.9659375 7.96875 8.046875 7.4375 C7.37140625 6.963125 6.6959375 6.48875 6 6 C6 5.34 6 4.68 6 4 C4.02 3.34 2.04 2.68 0 2 C0 1.34 0 0.68 0 0 Z " fill="#484A4A" transform="translate(59,38)"/>
<path d="M0 0 C-0.56847656 0.26554687 -1.13695312 0.53109375 -1.72265625 0.8046875 C-4.92774519 2.48694687 -7.75959235 4.63219062 -10.68359375 6.7578125 C-13.34091968 8.18282034 -15.0289227 8.24103978 -18 8 C-17.67 7.34 -17.34 6.68 -17 6 C-16.01 6 -15.02 6 -14 6 C-14 5.01 -14 4.02 -14 3 C-12 2.33333333 -10 1.66666667 -8 1 C-6.9275 0.608125 -5.855 0.21625 -4.75 -0.1875 C-2 -1 -2 -1 0 0 Z " fill="#42413F" transform="translate(340,55)"/>
<path d="M0 0 C0.928125 0.2784375 0.928125 0.2784375 1.875 0.5625 C4.04160178 1.23686176 4.04160178 1.23686176 6 0 C8.6855594 2.6855594 9.06049974 5.37621328 10 9 C7 9 7 9 4.4375 6.75 C2.42724922 4.48202476 1.12774794 2.76810859 0 0 Z " fill="#893F46" transform="translate(101,240)"/>
<path d="M0 0 C0 1.98 0 3.96 0 6 C-0.639375 6.103125 -1.27875 6.20625 -1.9375 6.3125 C-2.618125 6.539375 -3.29875 6.76625 -4 7 C-4.33 7.99 -4.66 8.98 -5 10 C-5.66 9.34 -6.32 8.68 -7 8 C-6.6730244 5.38419521 -6.17960932 3.35921863 -5 1 C-3.3176559 0.47426747 -1.77322566 0 0 0 Z " fill="#D4CBC3" transform="translate(78,238)"/>
<path d="M0 0 C0.33 0 0.66 0 1 0 C5.45812808 12.77996716 5.45812808 12.77996716 2.5 19.3125 C2.005 20.199375 1.51 21.08625 1 22 C0.18565857 19.14839609 -0.11881242 16.63373869 -0.09765625 13.671875 C-0.09282227 12.47304687 -0.09282227 12.47304687 -0.08789062 11.25 C-0.07951172 10.425 -0.07113281 9.6 -0.0625 8.75 C-0.05798828 7.90953125 -0.05347656 7.0690625 -0.04882812 6.203125 C-0.03707961 4.13538599 -0.01914522 2.06768376 0 0 Z " fill="#81817F" transform="translate(53,160)"/>
<path d="M0 0 C2.10771091 1.56913121 4.0296002 3.25350927 6 5 C5.67 5.66 5.34 6.32 5 7 C4.0925 6.690625 3.185 6.38125 2.25 6.0625 C-0.16563338 5.2727737 -2.52780285 4.57050703 -5 4 C-5 3.34 -5 2.68 -5 2 C-5.66 2 -6.32 2 -7 2 C-7 1.34 -7 0.68 -7 0 C-3.73151642 -1.08949453 -3.09368603 -1.23747441 0 0 Z " fill="#E1DCD8" transform="translate(111,251)"/>
<path d="M0 0 C4.36437324 0.88102284 8.68359252 1.90953916 13 3 C13 3.33 13 3.66 13 4 C5.14453364 4.31918373 -2.26940505 3.35709504 -10 2 C-6.40331782 -0.39778812 -4.1432709 -0.48210066 0 0 Z " fill="#4F3334" transform="translate(117,215)"/>
<path d="M0 0 C0.67095703 0.58007812 0.67095703 0.58007812 1.35546875 1.171875 C1.96003906 1.69265625 2.56460938 2.2134375 3.1875 2.75 C3.82171875 3.2965625 4.4559375 3.843125 5.109375 4.40625 C6.68220486 5.73210658 8.30440766 6.99912076 9.9375 8.25 C10.618125 8.8275 11.29875 9.405 12 10 C12 10.66 12 11.32 12 12 C9.69 12 7.38 12 5 12 C4.896875 11.401875 4.79375 10.80375 4.6875 10.1875 C4.1720991 7.93408662 4.1720991 7.93408662 2.5 6.5625 C0.53426922 4.51486377 0.37331439 2.76252651 0 0 Z " fill="#515254" transform="translate(110,75)"/>
<path d="M0 0 C0.33 0 0.66 0 1 0 C0.25 6.75 0.25 6.75 -2 9 C-2.71408334 10.98356483 -3.38617742 12.98315437 -4 15 C-4.99 15 -5.98 15 -7 15 C-6.43697042 11.05879291 -5.3208055 8.2491277 -3 5 C-2.34 5 -1.68 5 -1 5 C-0.67 3.35 -0.34 1.7 0 0 Z " fill="#474848" transform="translate(369,344)"/>
<path d="M0 0 C10.88730088 0.61307131 10.88730088 0.61307131 15 4 C17.3125 6.6875 17.3125 6.6875 19 9 C18.01 9 17.02 9 16 9 C15.67 8.01 15.34 7.02 15 6 C13.15106444 5.3431586 13.15106444 5.3431586 11 5 C9.63831971 4.54262178 8.28386419 4.06317108 6.9375 3.5625 C6.26589844 3.31628906 5.59429687 3.07007813 4.90234375 2.81640625 C3 2 3 2 0 0 Z " fill="#4A2828" transform="translate(130,219)"/>
<path d="M0 0 C5.94 0 11.88 0 18 0 C15 3 15 3 11.20703125 3.07421875 C9.74085796 2.96143619 8.27589543 2.83192243 6.8125 2.6875 C6.06291016 2.62626953 5.31332031 2.56503906 4.54101562 2.50195312 C2.69277255 2.34891389 0.8461665 2.17633121 -1 2 C-0.67 1.34 -0.34 0.68 0 0 Z " fill="#4F4E4C" transform="translate(209,116)"/>
<path d="M0 0 C1.32 0.33 2.64 0.66 4 1 C3.01 1 2.02 1 1 1 C1.33 4.3 1.66 7.6 2 11 C-2.67461851 11.32613618 -5.16674383 10.70582788 -9 8 C-8.34 7.34 -7.68 6.68 -7 6 C-6.01 6.66 -5.02 7.32 -4 8 C-3.01 8 -2.02 8 -1 8 C-0.67 5.36 -0.34 2.72 0 0 Z " fill="#534E4B" transform="translate(116,314)"/>
<path d="M0 0 C0.33 0.66 0.66 1.32 1 2 C0.67 2.66 0.34 3.32 0 4 C-0.66 4 -1.32 4 -2 4 C-1.7215625 4.928125 -1.7215625 4.928125 -1.4375 5.875 C-1 8 -1 8 -2 10 C-2.99 10 -3.98 10 -5 10 C-5.33 10.66 -5.66 11.32 -6 12 C-8.0625 13.125 -8.0625 13.125 -10 14 C-8.25731793 10.03935893 -5.85325271 6.25563451 -3 3 C-2.34 3 -1.68 3 -1 3 C-0.67 2.01 -0.34 1.02 0 0 Z " fill="#A0A09E" transform="translate(301,298)"/>
<path d="M0 0 C0.33 0 0.66 0 1 0 C1.08160748 1.89510699 1.13946459 3.79124504 1.1875 5.6875 C1.22230469 6.74324219 1.25710937 7.79898437 1.29296875 8.88671875 C0.96666615 12.35422768 -0.00969875 14.18432448 -2 17 C-3.32 16.34 -4.64 15.68 -6 15 C-5.35417969 14.60941406 -4.70835938 14.21882813 -4.04296875 13.81640625 C-1.79699483 12.16883309 -1.79699483 12.16883309 -1.42578125 9.58984375 C-1.38839844 8.71457031 -1.35101563 7.83929688 -1.3125 6.9375 C-1.06546645 2.1309329 -1.06546645 2.1309329 0 0 Z " fill="#96928E" transform="translate(101,304)"/>
<path d="M0 0 C0.66 0 1.32 0 2 0 C2.36192504 2.12369237 2.71431747 4.2490113 3.0625 6.375 C3.25972656 7.55835938 3.45695312 8.74171875 3.66015625 9.9609375 C4 13 4 13 3 15 C1 14 1 14 0 12 C-0.07065617 9.95944995 -0.08421976 7.91665743 -0.0625 5.875 C-0.05347656 4.77929688 -0.04445313 3.68359375 -0.03515625 2.5546875 C-0.02355469 1.71164063 -0.01195313 0.86859375 0 0 Z " fill="#F6EDE8" transform="translate(96,229)"/>
<path d="M0 0 C0.99 0.33 1.98 0.66 3 1 C3 1.66 3 2.32 3 3 C3.99 3 4.98 3 6 3 C6 4.65 6 6.3 6 8 C4.35 8 2.7 8 1 8 C0.87625 7.030625 0.7525 6.06125 0.625 5.0625 C0.41875 4.051875 0.2125 3.04125 0 2 C-0.66 1.67 -1.32 1.34 -2 1 C-1.34 0.67 -0.68 0.34 0 0 Z " fill="#323335" transform="translate(225,198)"/>
<path d="M0 0 C-2.67796972 3.46560787 -5.83662716 4.08264666 -10 5 C-13.4375 5.125 -13.4375 5.125 -16 5 C-13.77976074 2.77976074 -12.01470899 2.00011037 -9.125 0.8125 C-8.26132813 0.44769531 -7.39765625 0.08289063 -6.5078125 -0.29296875 C-3.83456944 -1.04664008 -2.57147011 -0.9388856 0 0 Z " fill="#7D7D7C" transform="translate(244,107)"/>
<path d="M0 0 C0.33 0 0.66 0 1 0 C1.21203451 5.83094895 0.96947414 11.44413776 -1 17 C-1.66 17.33 -2.32 17.66 -3 18 C-2.22095672 5.33029613 -2.22095672 5.33029613 0 0 Z " fill="#727270" transform="translate(351,252)"/>
<path d="M0 0 C0.33 0 0.66 0 1 0 C1 5.28 1 10.56 1 16 C0.34 16.33 -0.32 16.66 -1 17 C-1.93213141 10.73960391 -2.20927172 5.97802937 0 0 Z " fill="#605E5B" transform="translate(353,241)"/>
<path d="M0 0 C2.375 0.25 2.375 0.25 5 1 C5.66666667 2.33333333 6.33333333 3.66666667 7 5 C7.99 5.474375 8.98 5.94875 10 6.4375 C13 8 13 8 14.375 10.6875 C14.58125 11.450625 14.7875 12.21375 15 13 C11.12207603 11.38419835 8.28921212 8.75734641 5.25 5.9375 C4.74339844 5.47794922 4.23679687 5.01839844 3.71484375 4.54492188 C2.45382769 3.38757425 1.22393107 2.19649813 0 1 C0 0.67 0 0.34 0 0 Z " fill="#656562" transform="translate(92,328)"/>
<path d="M0 0 C0.33 0 0.66 0 1 0 C1.31257303 3.43830332 1.46129061 5.34496733 -0.5625 8.21875 C-3.973085 10.71110058 -6.1135865 10.2096015 -10.25 9.75 C-11.51328125 9.62109375 -12.7765625 9.4921875 -14.078125 9.359375 C-15.52445313 9.18148438 -15.52445313 9.18148438 -17 9 C-17 8.67 -17 8.34 -17 8 C-15.77023438 7.90912109 -15.77023438 7.90912109 -14.515625 7.81640625 C-12.89914063 7.69072266 -12.89914063 7.69072266 -11.25 7.5625 C-10.18265625 7.48128906 -9.1153125 7.40007812 -8.015625 7.31640625 C-5.56320038 7.05909227 -3.36078709 6.68187782 -1 6 C-0.67 4.02 -0.34 2.04 0 0 Z " fill="#888785" transform="translate(185,320)"/>
<path d="M0 0 C4.23429756 1.31061591 8.07407404 2.94356259 12 5 C9 7 9 7 5.8125 6.625 C4.884375 6.41875 3.95625 6.2125 3 6 C2.67 5.01 2.34 4.02 2 3 C1.34 2.67 0.68 2.34 0 2 C0 1.34 0 0.68 0 0 Z " fill="#444645" transform="translate(46,32)"/>
<path d="M0 0 C0 0.66 0 1.32 0 2 C-8.261959 6.59225513 -8.261959 6.59225513 -13 6 C-12.34 4.68 -11.68 3.36 -11 2 C-8.03 2.495 -8.03 2.495 -5 3 C-5 2.34 -5 1.68 -5 1 C-3 0 -3 0 0 0 Z " fill="#773136" transform="translate(142,249)"/>
<path d="M0 0 C-1.2125738 3.72433382 -2.50859979 7.37802806 -4 11 C-6.4294516 7.3558226 -6.16179575 5.28758728 -6 1 C-4 0 -4 0 0 0 Z " fill="#4C4742" transform="translate(72,241)"/>
<path d="M0 0 C6.5705166 -0.24794402 12.56971459 0.67611771 19 2 C19 2.33 19 2.66 19 3 C11.69937859 4.11388158 6.72976216 4.17441612 0 1 C0 0.67 0 0.34 0 0 Z " fill="#797979" transform="translate(152,107)"/>
<path d="M0 0 C2.7302389 -0.1083667 5.45614543 -0.18746694 8.1875 -0.25 C8.95642578 -0.28351562 9.72535156 -0.31703125 10.51757812 -0.3515625 C14.64610431 -0.42243849 16.50155164 -0.32932056 20.05078125 2.015625 C20.69402344 2.67046875 21.33726562 3.3253125 22 4 C20.68 4.33 19.36 4.66 18 5 C18 4.34 18 3.68 18 3 C17.01 3 16.02 3 15 3 C15 2.34 15 1.68 15 1 C10.05 1 5.1 1 0 1 C0 0.67 0 0.34 0 0 Z " fill="#4D4D4D" transform="translate(348,50)"/>
<path d="M0 0 C0.5 2.1875 0.5 2.1875 0 5 C-2.48053942 7.01271839 -5.17640062 8.51887086 -8 10 C-4.11111111 0 -4.11111111 0 0 0 Z " fill="#55524F" transform="translate(79,192)"/>
<path d="M0 0 C0.99 0 1.98 0 3 0 C5.29633824 3.44450737 5.54016485 5.93812283 6 10 C5.01 10 4.02 10 3 10 C0 3.375 0 3.375 0 0 Z " fill="#4F4E4D" transform="translate(16,74)"/>
<path d="M0 0 C2 2 2 2 2 5 C2.66 5 3.32 5 4 5 C4.33 6.98 4.66 8.96 5 11 C4.01 11 3.02 11 2 11 C0.11772118 7.73738338 -0.58481145 4.73669693 -1 1 C-0.67 0.67 -0.34 0.34 0 0 Z " fill="#656564" transform="translate(14,65)"/>
<path d="M0 0 C0.66 0 1.32 0 2 0 C2.33 1.98 2.66 3.96 3 6 C3.99 6 4.98 6 6 6 C6.33 9.63 6.66 13.26 7 17 C6.34 16.67 5.68 16.34 5 16 C5 13.69 5 11.38 5 9 C4.01 8.67 3.02 8.34 2 8 C0.04457812 5.01540871 0 3.73585209 0 0 Z " fill="#484745" transform="translate(8,48)"/>
<path d="M0 0 C1.32 0.66 2.64 1.32 4 2 C1.03 4.64 -1.94 7.28 -5 10 C-5 7 -5 7 -4 5 C-3.34 5 -2.68 5 -2 5 C-1.34 3.35 -0.68 1.7 0 0 Z " fill="#9D9C9A" transform="translate(204,321)"/>
<path d="M0 0 C0.66 0 1.32 0 2 0 C1.54996653 5.62541841 0.31558515 8.61487125 -3 13 C-4 11 -4 11 -3.22265625 8.3984375 C-2.83980469 7.40070313 -2.45695312 6.40296875 -2.0625 5.375 C-1.68222656 4.37210937 -1.30195313 3.36921875 -0.91015625 2.3359375 C-0.60980469 1.56507813 -0.30945313 0.79421875 0 0 Z " fill="#6D6C6A" transform="translate(339,301)"/>
<path d="M0 0 C3 1 3 1 4.1328125 2.671875 C5.92535332 6.42633057 7.47766177 9.82129414 8 14 C5.70982814 11.85086512 3.98684411 9.65481588 2.3125 7 C1.87550781 6.319375 1.43851563 5.63875 0.98828125 4.9375 C0 3 0 3 0 0 Z " fill="#555553" transform="translate(42,141)"/>
<path d="M0 0 C0.33 0.66 0.66 1.32 1 2 C-3.96284034 4.37113483 -8.45949887 6.43174347 -14 7 C-11.6793693 3.51905395 -10.889061 3.4037923 -7 2.375 C-3.40908089 1.42605115 -3.40908089 1.42605115 0 0 Z " fill="#4B4947" transform="translate(242,110)"/>
<path d="M0 0 C1.65 0.33 3.3 0.66 5 1 C1.4912812 4.09592835 -1.49197399 5.74194623 -6 7 C-5.34 5.68 -4.68 4.36 -4 3 C-3.01 3 -2.02 3 -1 3 C-0.67 2.01 -0.34 1.02 0 0 Z " fill="#9F9D9B" transform="translate(193,330)"/>
<path d="M0 0 C0.33 0 0.66 0 1 0 C1.05411124 2.41696872 1.09372278 4.83271787 1.125 7.25 C1.15013672 8.27287109 1.15013672 8.27287109 1.17578125 9.31640625 C1.21213482 13.0608235 1.07944349 15.82352727 -1 19 C-2.125 15.6875 -2.125 15.6875 -3 12 C-2.34 11.01 -1.68 10.02 -1 9 C-0.54605448 6.72087062 -0.54605448 6.72087062 -0.375 4.3125 C-0.30023438 3.50425781 -0.22546875 2.69601562 -0.1484375 1.86328125 C-0.09945312 1.24839844 -0.05046875 0.63351562 0 0 Z " fill="#8D8C8A" transform="translate(220,282)"/>
<path d="M0 0 C0.66 0.33 1.32 0.66 2 1 C1.835 1.556875 1.67 2.11375 1.5 2.6875 C0.95958649 5.18691249 0.92917935 7.45045662 1 10 C-0.98 10 -2.96 10 -5 10 C-4.34 9.67 -3.68 9.34 -3 9 C-2.62243192 7.67851173 -2.2981424 6.34164079 -2 5 C-1.3530635 3.3255761 -0.69040574 1.65697379 0 0 Z " fill="#595755" transform="translate(111,390)"/>
<path d="M0 0 C1.1875 1.6875 1.1875 1.6875 2 4 C0.625 6.5625 0.625 6.5625 -1 9 C-1 9.99 -1 10.98 -1 12 C-2.32 11.34 -3.64 10.68 -5 10 C-5 9.34 -5 8.68 -5 8 C-4.54625 7.566875 -4.0925 7.13375 -3.625 6.6875 C-1.65690769 4.64371183 -0.93273129 2.65469676 0 0 Z " fill="#53514F" transform="translate(337,318)"/>
<path d="M0 0 C0.66 0 1.32 0 2 0 C2 0.66 2 1.32 2 2 C2.66 2 3.32 2 4 2 C4.433125 2.7425 4.86625 3.485 5.3125 4.25 C7.16677714 7.27178496 9.15621943 8.92480878 12 11 C11.34 11.66 10.68 12.32 10 13 C8.51511559 11.40112446 7.03726855 9.79571095 5.5625 8.1875 C4.32693359 6.84751953 4.32693359 6.84751953 3.06640625 5.48046875 C1 3 1 3 0 0 Z " fill="#5D5C5A" transform="translate(67,302)"/>
<path d="M0 0 C0.99 0.33 1.98 0.66 3 1 C2.34 4.3 1.68 7.6 1 11 C1.66 11.33 2.32 11.66 3 12 C2.01 12 1.02 12 0 12 C0 9.69 0 7.38 0 5 C-0.66 5 -1.32 5 -2 5 C-1.34 3.35 -0.68 1.7 0 0 Z " fill="#E2E2DD" transform="translate(60,190)"/>
<path d="M0 0 C0.3125 3.25 0.3125 3.25 0 7 C-2.5 9.4375 -2.5 9.4375 -5 11 C-4.47731534 8.23723823 -3.89130413 5.6739124 -3 3 C-3.33 2.34 -3.66 1.68 -4 1 C-2 0 -2 0 0 0 Z " fill="#605C59" transform="translate(67,176)"/>
<path d="M0 0 C0.66 0.33 1.32 0.66 2 1 C1.67 1.99 1.34 2.98 1 4 C-1.94140625 4.94921875 -1.94140625 4.94921875 -5.5625 5.6875 C-7.35880859 6.06455078 -7.35880859 6.06455078 -9.19140625 6.44921875 C-10.58166016 6.72185547 -10.58166016 6.72185547 -12 7 C-11 5 -11 5 -8.6875 3.875 C-6 3 -6 3 -2 3 C-2 2.34 -2 1.68 -2 1 C-1.34 0.67 -0.68 0.34 0 0 Z " fill="#63605F" transform="translate(300,67)"/>
<path d="M0 0 C0.33 0 0.66 0 1 0 C1.31563182 5.26053037 0.66590937 8.44573816 -2 13 C-3.28317892 9.15046324 -3.06643637 6.05261865 -3 2 C-2.34 2 -1.68 2 -1 2 C-0.67 1.34 -0.34 0.68 0 0 Z " fill="#575553" transform="translate(347,283)"/>
<path d="M0 0 C0.99 0.33 1.98 0.66 3 1 C3 1.99 3 2.98 3 4 C3.66 4 4.32 4 5 4 C5 4.66 5 5.32 5 6 C3.02 6 1.04 6 -1 6 C-1.042721 4.33388095 -1.04063832 2.66617115 -1 1 C-0.67 0.67 -0.34 0.34 0 0 Z " fill="#B5B0AE" transform="translate(122,296)"/>
<path d="M0 0 C-2.86895726 3.29398797 -4.67646718 4.44570092 -9 5 C-9.99 5.33 -10.98 5.66 -12 6 C-11 3 -11 3 -9.2578125 1.796875 C-8.55398437 1.45140625 -7.85015625 1.1059375 -7.125 0.75 C-6.42632812 0.39421875 -5.72765625 0.0384375 -5.0078125 -0.328125 C-3 -1 -3 -1 0 0 Z " fill="#F2EBE5" transform="translate(91,231)"/>
<path d="M0 0 C1.5 1.375 1.5 1.375 3 3 C3 3.66 3 4.32 3 5 C2.34 5 1.68 5 1 5 C1 8.63 1 12.26 1 16 C0.67 16 0.34 16 0 16 C-0.16852247 14.39602723 -0.33474886 12.7918131 -0.5 11.1875 C-0.5928125 10.29417969 -0.685625 9.40085938 -0.78125 8.48046875 C-1.06663534 5.24440284 -1.03785919 3.11357756 0 0 Z " fill="#605C59" transform="translate(76,176)"/>
<path d="M0 0 C0 3 0 3 -1 5 C-1.66 5 -2.32 5 -3 5 C-3.66 6.32 -4.32 7.64 -5 9 C-5.66 8.01 -6.32 7.02 -7 6 C-6.34 5.01 -5.68 4.02 -5 3 C-4.01 3 -3.02 3 -2 3 C-2 2.34 -2 1.68 -2 1 C-1.34 0.67 -0.68 0.34 0 0 Z " fill="#4E4E4C" transform="translate(301,296)"/>
<path d="M0 0 C0.33 0 0.66 0 1 0 C1 4.29 1 8.58 1 13 C0.01 12.67 -0.98 12.34 -2 12 C-2.26252625 7.66831683 -1.29243536 4.1196377 0 0 Z " fill="#862830" transform="translate(146,233)"/>
<path d="M0 0 C1.18414294 3.55242882 0.69535532 4.69830562 -0.4375 8.1875 C-0.72496094 9.08855469 -1.01242187 9.98960937 -1.30859375 10.91796875 C-1.53675781 11.60503906 -1.76492188 12.29210937 -2 13 C-2.33 13 -2.66 13 -3 13 C-3.27429625 7.60550707 -3.36055646 4.48074195 0 0 Z " fill="#4B4D4C" transform="translate(323,197)"/>
<path d="M0 0 C0.99 0 1.98 0 3 0 C3 1.65 3 3.3 3 5 C2.34 4.34 1.68 3.68 1 3 C-0.98 5.97 -0.98 5.97 -3 9 C-3.75 7.3125 -3.75 7.3125 -4 5 C-2.25 2.25 -2.25 2.25 0 0 Z " fill="#757470" transform="translate(65,190)"/>
<path d="M0 0 C1.98 0.495 1.98 0.495 4 1 C4.33 2.65 4.66 4.3 5 6 C4.01 5.67 3.02 5.34 2 5 C2 4.67 2 4.34 2 4 C1.01 3.67 0.02 3.34 -1 3 C-0.67 2.01 -0.34 1.02 0 0 Z " fill="#3C3A37" transform="translate(89,315)"/>
<path d="M0 0 C0.99 0.33 1.98 0.66 3 1 C3 2.65 3 4.3 3 6 C2.01 6.33 1.02 6.66 0 7 C-0.66 7.66 -1.32 8.32 -2 9 C-2 7.02 -2 5.04 -2 3 C-1.34 3 -0.68 3 0 3 C0 2.01 0 1.02 0 0 Z " fill="#676461" transform="translate(44,202)"/>
<path d="M0 0 C0.33 0 0.66 0 1 0 C1.0810206 2.10353495 1.13919907 4.20795952 1.1875 6.3125 C1.22230469 7.48425781 1.25710937 8.65601563 1.29296875 9.86328125 C1 13 1 13 -2 16 C-1.34 10.72 -0.68 5.44 0 0 Z " fill="#787775" transform="translate(115,356)"/>
<path d="M0 0 C0.66 0.33 1.32 0.66 2 1 C1.25 7.75 1.25 7.75 -1 10 C-2.46726798 6.18510326 -1.43336419 3.70988378 0 0 Z " fill="#696967" transform="translate(346,277)"/>
<path d="M0 0 C-0.33 1.65 -0.66 3.3 -1 5 C-1.99 5.33 -2.98 5.66 -4 6 C-4.66 5.34 -5.32 4.68 -6 4 C-2.25 0 -2.25 0 0 0 Z " fill="#DECDCC" transform="translate(144,250)"/>
<path d="M0 0 C3.875 1.875 3.875 1.875 5 3 C5.04080783 4.99958364 5.04254356 7.00045254 5 9 C4.67 7.68 4.34 6.36 4 5 C3.01 5 2.02 5 1 5 C0.34 3.68 -0.32 2.36 -1 1 C-0.67 0.67 -0.34 0.34 0 0 Z " fill="#414244" transform="translate(227,196)"/>
<path d="M0 0 C4.92127034 -0.16682272 8.50343896 -0.24828052 13 2 C13 2.33 13 2.66 13 3 C10.03 3 7.06 3 4 3 C4 2.34 4 1.68 4 1 C2.68 0.67 1.36 0.34 0 0 Z " fill="#848683" transform="translate(308,319)"/>
<path d="M0 0 C0.33 0.66 0.66 1.32 1 2 C1.66 2 2.32 2 3 2 C2.67 4.31 2.34 6.62 2 9 C0.10786631 6.61426621 -1.02391783 4.92824652 -2 2 C-1.34 2 -0.68 2 0 2 C0 1.34 0 0.68 0 0 Z " fill="#B9B4AE" transform="translate(75,286)"/>
<path d="M0 0 C0.99 0.33 1.98 0.66 3 1 C3.6875 3.0625 3.6875 3.0625 4 5 C2.35 5.33 0.7 5.66 -1 6 C-1.042721 4.33388095 -1.04063832 2.66617115 -1 1 C-0.67 0.67 -0.34 0.34 0 0 Z " fill="#3C3835" transform="translate(68,282)"/>
<path d="M0 0 C-1.485 1.485 -1.485 1.485 -3 3 C-3.33 2.67 -3.66 2.34 -4 2 C-4.66 2.66 -5.32 3.32 -6 4 C-6.66 3.34 -7.32 2.68 -8 2 C-8 1.34 -8 0.68 -8 0 C-4.94736336 -0.98120464 -3.05263664 -0.98120464 0 0 Z " fill="#E4D3D5" transform="translate(131,258)"/>
<path d="M0 0 C0.66 0.33 1.32 0.66 2 1 C1.55090939 2.48199902 1.09043436 3.96055236 0.625 5.4375 C0.36976562 6.26121094 0.11453125 7.08492187 -0.1484375 7.93359375 C-1 10 -1 10 -3 11 C-2.69078116 9.54096742 -2.37751201 8.08279278 -2.0625 6.625 C-1.88847656 5.81289062 -1.71445312 5.00078125 -1.53515625 4.1640625 C-1 2 -1 2 0 0 Z " fill="#65605F" transform="translate(41,212)"/>
<path d="M0 0 C2.31 1.98 4.62 3.96 7 6 C5.02 6.99 5.02 6.99 3 8 C0 2.25 0 2.25 0 0 Z " fill="#454648" transform="translate(94,60)"/>
<path d="M0 0 C0.66 0.33 1.32 0.66 2 1 C1.67 1.66 1.34 2.32 1 3 C1.99 3 2.98 3 4 3 C4.33 2.34 4.66 1.68 5 1 C5 1.99 5 2.98 5 4 C2.24921116 4.91692961 0.64051087 5.10886083 -2.1875 5.0625 C-4.0746875 5.0315625 -4.0746875 5.0315625 -6 5 C-6 4.67 -6 4.34 -6 4 C-4.35 3.67 -2.7 3.34 -1 3 C-0.67 2.01 -0.34 1.02 0 0 Z " fill="#908E8C" transform="translate(168,339)"/>
<path d="M0 0 C0.33 0.99 0.66 1.98 1 3 C2.32 2.34 3.64 1.68 5 1 C3.70700306 3.88437779 2.34058637 5.87219421 0 8 C-0.98120464 4.94736336 -0.98120464 3.05263664 0 0 Z " fill="#9D9C9A" transform="translate(209,312)"/>
<path d="M0 0 C5.875 2.75 5.875 2.75 7 5 C4.36 5 1.72 5 -1 5 C-0.34 4.67 0.32 4.34 1 4 C0.67 2.68 0.34 1.36 0 0 Z " fill="#8D8C8A" transform="translate(134,298)"/>
<path d="M0 0 C0.66 0.33 1.32 0.66 2 1 C2 3.97 2 6.94 2 10 C1.34 10 0.68 10 0 10 C-0.19412181 8.52168779 -0.38012131 7.04230684 -0.5625 5.5625 C-0.66691406 4.73878906 -0.77132812 3.91507812 -0.87890625 3.06640625 C-0.91886719 2.38449219 -0.95882812 1.70257813 -1 1 C-0.67 0.67 -0.34 0.34 0 0 Z " fill="#222220" transform="translate(222,277)"/>
<path d="M0 0 C2.49505962 2.49505962 2.35948376 3.67328888 2.625 7.125 C2.69976562 8.03507812 2.77453125 8.94515625 2.8515625 9.8828125 C2.92503906 10.93082031 2.92503906 10.93082031 3 12 C2.34 12 1.68 12 1 12 C0.03929566 9.11788698 -0.10581883 7.30149956 -0.0625 4.3125 C-0.05347656 3.50425781 -0.04445312 2.69601562 -0.03515625 1.86328125 C-0.02355469 1.24839844 -0.01195312 0.63351562 0 0 Z " fill="#959593" transform="translate(217,270)"/>
<path d="M0 0 C2 2 2 2 2 6 C0.68 5.67 -0.64 5.34 -2 5 C-2.33 5.99 -2.66 6.98 -3 8 C-3.66 7.67 -4.32 7.34 -5 7 C-4.34 6.01 -3.68 5.02 -3 4 C-2.34 4 -1.68 4 -1 4 C-0.67 2.68 -0.34 1.36 0 0 Z " fill="#EDD3D5" transform="translate(149,242)"/>
<path d="M0 0 C6.75 1.625 6.75 1.625 9 5 C6.1875 5.3125 6.1875 5.3125 3 5 C1.125 2.5 1.125 2.5 0 0 Z " fill="#575958" transform="translate(133,98)"/>
<path d="M0 0 C-0.75 2.4375 -0.75 2.4375 -2 5 C-4.125 5.8125 -4.125 5.8125 -6 6 C-6 5.01 -6 4.02 -6 3 C-2.66666667 0 -2.66666667 0 0 0 Z " fill="#605F5B" transform="translate(14,25)"/>
<path d="M0 0 C1.98 0.495 1.98 0.495 4 1 C4 1.66 4 2.32 4 3 C6.31 3 8.62 3 11 3 C11 3.33 11 3.66 11 4 C2.42857143 4.28571429 2.42857143 4.28571429 -1 2 C-0.67 1.34 -0.34 0.68 0 0 Z " fill="#898885" transform="translate(148,341)"/>
<path d="M0 0 C1.98 0.495 1.98 0.495 4 1 C4 1.99 4 2.98 4 4 C4.66 4.33 5.32 4.66 6 5 C4.68 5 3.36 5 2 5 C2 4.34 2 3.68 2 3 C1.01 3 0.02 3 -1 3 C-0.67 2.01 -0.34 1.02 0 0 Z " fill="#282725" transform="translate(185,338)"/>
<path d="M0 0 C2.625 0.9375 2.625 0.9375 5 2 C4.67 2.66 4.34 3.32 4 4 C0.9375 4.625 0.9375 4.625 -2 5 C-2 3.68 -2 2.36 -2 1 C-1.34 0.67 -0.68 0.34 0 0 Z " fill="#9E9C9A" transform="translate(180,336)"/>
<path d="M0 0 C0 1.98 0 3.96 0 6 C-0.99 6.33 -1.98 6.66 -3 7 C-3.6875 5.1875 -3.6875 5.1875 -4 3 C-1.64285714 0 -1.64285714 0 0 0 Z " fill="#EAE1D9" transform="translate(78,238)"/>
<path d="M0 0 C0.66 0 1.32 0 2 0 C1.38722388 2.96175123 0.74627478 4.38058783 -1 7 C-1.66 7 -2.32 7 -3 7 C-1.125 1.125 -1.125 1.125 0 0 Z " fill="#583936" transform="translate(100,220)"/>
<path d="M0 0 C0.66 0.33 1.32 0.66 2 1 C1.0479279 2.00596297 0.08812654 3.00461563 -0.875 4 C-1.40867188 4.556875 -1.94234375 5.11375 -2.4921875 5.6875 C-4 7 -4 7 -6 7 C-4.60667426 3.63279613 -3.0210714 2.0140476 0 0 Z " fill="#D0D0D2" transform="translate(215,186)"/>
<path d="M0 0 C0.66 0.66 1.32 1.32 2 2 C1.34 2.66 0.68 3.32 0 4 C-0.309375 4.845625 -0.61875 5.69125 -0.9375 6.5625 C-1.288125 7.366875 -1.63875 8.17125 -2 9 C-2.99 9.33 -3.98 9.66 -5 10 C-3.66511872 6.40608886 -2.03977277 3.24509304 0 0 Z " fill="#9FA0A0" transform="translate(348,154)"/>
<path d="M0 0 C2.50357192 1.25178596 4.06433379 2.99981158 6 5 C5.34 6.32 4.68 7.64 4 9 C0 3.375 0 3.375 0 0 Z " fill="#5C5B58" transform="translate(108,340)"/>
<path d="M0 0 C3.81684226 1.55500981 6.19195732 4.03595495 9 7 C5.07353523 5.69117841 2.72225079 4.1255472 0 1 C0 0.67 0 0.34 0 0 Z " fill="#5E5E5F" transform="translate(336,330)"/>
<path d="M0 0 C0.99 0.33 1.98 0.66 3 1 C3 1.99 3 2.98 3 4 C3.66 4 4.32 4 5 4 C4.67 4.66 4.34 5.32 4 6 C-0.875 3.25 -0.875 3.25 -2 1 C-1.34 0.67 -0.68 0.34 0 0 Z " fill="#50504D" transform="translate(90,323)"/>
<path d="M0 0 C2.66735273 2.48952921 4.55746343 4.63408134 6 8 C5.01 8 4.02 8 3 8 C1.02 4.535 1.02 4.535 -1 1 C-0.67 0.67 -0.34 0.34 0 0 Z " fill="#52514F" transform="translate(62,293)"/>
<path d="M0 0 C1.65 1.65 3.3 3.3 5 5 C4.67 5.66 4.34 6.32 4 7 C3.67 6.67 3.34 6.34 3 6 C2.34 6.66 1.68 7.32 1 8 C1 7.34 1 6.68 1 6 C0.34 5.67 -0.32 5.34 -1 5 C-0.67 3.35 -0.34 1.7 0 0 Z " fill="#9E9E9B" transform="translate(58,291)"/>
<path d="M0 0 C2.64 1.98 5.28 3.96 8 6 C7.67 6.66 7.34 7.32 7 8 C4.0625 6.25 4.0625 6.25 1 4 C0.67 2.68 0.34 1.36 0 0 Z " fill="#E2C7C6" transform="translate(109,250)"/>
<path d="M0 0 C0.66 0.66 1.32 1.32 2 2 C1.625 5.625 1.625 5.625 1 9 C0.34 8.34 -0.32 7.68 -1 7 C-0.625 3.375 -0.625 3.375 0 0 Z " fill="#933A3E" transform="translate(101,225)"/>
<path d="M0 0 C0.66 0.99 1.32 1.98 2 3 C0.71937515 4.7074998 -0.61767557 6.37373596 -2 8 C-2.66 8 -3.32 8 -4 8 C-2.87548273 5.0280615 -1.77706209 2.66559313 0 0 Z " fill="#66635F" transform="translate(70,202)"/>
<path d="M0 0 C-2.63904371 1.41377341 -5.07120629 2.37240135 -8 3 C-8 2.01 -8 1.02 -8 0 C-5.13822943 -1.43088528 -3.06624227 -0.59991697 0 0 Z " fill="#ACABA9" transform="translate(298,69)"/>
<path d="M0 0 C0.66 0 1.32 0 2 0 C1.38722388 2.96175123 0.74627478 4.38058783 -1 7 C-1.66 7 -2.32 7 -3 7 C-1.125 1.125 -1.125 1.125 0 0 Z " fill="#636361" transform="translate(287,315)"/>
<path d="M0 0 C0.66 0.66 1.32 1.32 2 2 C1.66306057 5.36939433 0.11180592 7.42910583 -2 10 C-1.54177532 6.53058454 -1.10868317 3.32604951 0 0 Z " fill="#797877" transform="translate(343,286)"/>
<path d="M0 0 C0.66 1.32 1.32 2.64 2 4 C1.34 4 0.68 4 0 4 C-0.33 4.99 -0.66 5.98 -1 7 C-1.66 7 -2.32 7 -3 7 C-1.125 1.125 -1.125 1.125 0 0 Z " fill="#A3A4A3" transform="translate(352,147)"/>
</svg>
